<svg version="1.1" id="Layer_1" xmlns="http://www.w3.org/2000/svg" xmlns:xlink="http://www.w3.org/1999/xlink" x="0" y="0" viewBox="0 0 540 288" style="enable-background:new 0 0 540 288" xml:space="preserve"><style>.st1{clip-path:url(#SVGID_00000165936860120124384170000000294130397456896440_)}</style><g style="opacity:.04"><defs><path id="SVGID_1_" transform="rotate(-180 270 144)" d="M0 0h540v288H0z"/></defs><use xlink:href="#SVGID_1_" style="overflow:visible;fill:#fff"/><clipPath id="SVGID_00000170271162967318406370000016557659421183575457_"><use xlink:href="#SVGID_1_" style="overflow:visible"/></clipPath><g style="clip-path:url(#SVGID_00000170271162967318406370000016557659421183575457_)"><path d="M-22.51 9.47v.92c4.55 2.58 9.11 5.15 13.66 7.73.33.18.62.42 1.12.76-.57.33-.98.57-1.38.8-4.47 2.51-8.93 5.02-13.39 7.54v.94c4.51-2.65 9.01-5.32 13.51-7.97.45-.27.9-.52 1.52-.87.04.64.1 1.06.09 1.48-.08 7.56-.2 15.12-.24 22.67-.01 1.06-.35 1.66-1.26 2.19-4.55 2.65-9.09 5.33-13.62 8.01v.58c4.65-2.61 9.31-5.23 13.95-7.87.9-.52 1.6-.58 2.53-.04C.59 50.12 7.23 53.85 13.85 57.6c.33.19.64.42 1.2.78-1.15.66-2.07 1.2-2.99 1.72-6 3.37-12.01 6.73-17.99 10.13-.9.51-1.58.6-2.53.05-4.67-2.68-9.35-5.32-14.04-7.97v.68c5.67 3.25 12.84 7.52 14.76 8.89.08 8.37.15 16.8.23 25.26-.75-.15-8.73-4.7-14.99-8.43v.82l13.26 7.5c.41.23.8.5 1.36.85-.5.34-.84.6-1.2.8-4.47 2.51-8.95 5.03-13.42 7.55v.76c4.43-2.61 8.86-5.23 13.29-7.84.45-.27.9-.52 1.53-.88.04.63.1 1.05.1 1.46-.08 7.61-.18 15.21-.25 22.82-.01.85-.17 1.43-.98 1.91-4.57 2.66-9.13 5.35-13.69 8.04v.75c4.66-2.61 9.32-5.23 13.97-7.86.8-.46 1.42-.53 2.27-.04 6.64 3.8 13.32 7.55 19.98 11.32.33.18.63.4 1.08.7-.43.29-.72.53-1.04.71-6.72 3.78-13.44 7.54-20.15 11.34-.71.4-1.26.47-2.01.04-4.69-2.68-9.4-5.34-14.1-7.99v.72c4.56 2.7 9.11 5.4 13.67 8.09.61.36.9.75.9 1.49.05 7.91.13 15.82.2 23.73 0 .19-.03.38-.08.91-4.97-2.94-9.84-5.83-14.69-8.71v.9c4.49 2.54 8.98 5.09 13.47 7.63.28.16.52.39.89.66-.49.31-.83.56-1.19.77l-13.17 7.41v.88c3.22-1.89 6.43-3.78 9.65-5.66 1.6-.93 3.21-1.85 5.06-2.92.02.67.06 1.14.06 1.61-.08 7.51-.19 15.03-.24 22.54-.01 1.06-.35 1.66-1.26 2.2-4.44 2.58-8.85 5.19-13.27 7.81v.56c4.67-2.62 9.34-5.24 14-7.87.6-.34 1.11-.45 1.76-.08C.17 208.07 7.09 211.98 14 215.9c.16.09.29.23.64.51-.6.35-1.02.59-1.44.83-6.5 3.66-13.02 7.29-19.5 11-.98.56-1.69.54-2.67-.02-4.5-2.58-9.01-5.14-13.53-7.69v.73c4.44 2.63 8.87 5.26 13.31 7.88.66.39 1.12.75 1.12 1.66.03 7.85.12 15.71.19 23.57 0 .24-.03.48-.06.87-.36-.12-.68-.18-.94-.33-4.55-2.69-9.09-5.38-13.63-8.07v.9l13.05 7.38c.36.21.7.47 1.22.81-.58.34-.99.58-1.4.81l-12.87 7.23v.76l13.65-8.04c.2-.12.43-.18.85-.36.02.59.06.97.06 1.36-.09 7.66-.18 15.32-.25 22.99-.01.79-.17 1.34-.93 1.79-4.47 2.61-8.92 5.23-13.38 7.86v.69c4.58-2.57 9.15-5.14 13.72-7.73.64-.36 1.18-.51 1.89-.1 6.51 3.71 13.04 7.38 19.56 11.07h1.31c-3.96-2.03-19.11-10.92-21.23-12.49-.07-8.37-.15-16.8-.23-25.27 1.16.29 19.79 11.19 22.12 12.91.08 8.23.15 16.52.23 24.85h.51c-.02-.36-.04-.66-.04-.95.08-7.51.2-15.03.23-22.55 0-1.15.4-1.74 1.36-2.29 6.5-3.78 12.97-7.62 19.45-11.43.36-.21.75-.38 1.3-.66.03.63.08 1.1.07 1.56-.08 7.52-.19 15.03-.24 22.55-.01 1.04-.3 1.67-1.23 2.21-6.5 3.78-12.96 7.63-19.44 11.45-.06.04-.12.07-.19.11h.66c6.49-3.64 12.98-7.27 19.46-10.94.75-.42 1.33-.54 2.14-.08 6.46 3.7 12.95 7.35 19.43 11.02h.97c-7.1-4.21-13.97-8.28-20.88-12.38-.08-8.45-.15-16.87-.23-25.33 1.15.31 20.23 11.49 22.06 12.9.07 8.14.15 16.33.22 24.8H61c-.03-.22-.06-.43-.06-.63.08-7.75.18-15.51.25-23.26 0-.68.13-1.18.79-1.57 4.29-2.51 8.57-5.04 12.85-7.57v.01c1.89-1.12 3.79-2.24 5.68-3.35.62-.37 1.25-.73 1.87-1.1.16-.09.35-.18.56-.28.06-.02.11-.04.18-.07.05.41.12.76.12 1.1-.08 7.7-.18 15.41-.25 23.11-.01.81-.19 1.34-.94 1.78-2.46 1.43-4.91 2.88-7.37 4.33v.08c-4.21 2.47-8.41 4.95-12.61 7.43h1.03c4.12-2.32 8.24-4.63 12.36-6.95 2.37-1.33 4.73-2.65 7.1-3.98a2.866 2.866 0 0 1 .64-.27c.02-.01.04-.01.06-.01.22-.05.44-.06.67-.01.16.04.32.11.5.21 6.47 3.69 12.96 7.35 19.45 11.02H105c-6.69-3.96-13.37-7.93-20.06-11.88-.55-.33-.85-.68-.86-1.37-.05-8-.12-16-.19-24 0-.13.04-.28.09-.6.45.22.81.39 1.13.59 6.55 3.87 13.09 7.76 19.65 11.63.66.39 1.11.75 1.12 1.67.03 7.86.12 15.71.19 23.57 0 .12-.01.25-.02.4h.69c-.03-.21-.06-.41-.05-.6.08-7.75.18-15.51.25-23.26.01-.68.14-1.18.8-1.57 6.89-4.03 13.76-8.1 20.64-12.15.09-.04.2-.09.34-.15.05-.02.11-.04.18-.06.03.5.07.87.07 1.23-.09 7.66-.18 15.31-.26 22.97-.01.79-.14 1.35-.91 1.8-6.7 3.91-13.36 7.86-20.04 11.8h.88c6.44-3.63 12.89-7.23 19.32-10.88.66-.34 1.23-.46 1.86-.28.13.05.26.1.4.18 6.45 3.69 12.92 7.33 19.39 10.98h1.49c-3.61-1.78-17.75-10.04-21.28-12.47-.07-8.38-.15-16.75-.23-25.14.68.24 3.01 1.49 5.96 3.16 4.7 2.78 9.31 5.52 13.93 8.26.8.5 1.49.95 2.02 1.31.08 8.23.15 16.54.23 24.88h.67c-.03-.24-.06-.46-.06-.67.08-7.71.18-15.42.26-23.13.01-.57.1-1.02.43-1.4l.09-.09c.07-.07.16-.13.25-.2.09-.06.18-.13.29-.19 5.61-3.27 11.21-6.57 16.8-9.86.97-.57 1.92-1.17 2.89-1.74.32-.19.68-.35 1.12-.56.02-.01.05-.02.08-.03.02.56.06.93.06 1.3-.09 7.66-.18 15.32-.25 22.99-.01.79-.17 1.34-.93 1.79-6.69 3.91-13.36 7.86-20.04 11.79h1.05c6.49-3.66 12.99-7.3 19.47-10.97.15-.08.29-.15.42-.21.03-.01.07-.02.1-.04.07-.03.15-.04.22-.06.16-.03.33-.04.5-.01.16.04.32.1.5.2 6.51 3.71 13.04 7.38 19.56 11.07h1.46c-1.65-.85-5.24-2.88-9.02-5.08-2.01-1.19-4.02-2.37-6.03-3.55-2.54-1.52-4.67-2.83-5.72-3.53-.24-.26-.38-.56-.46-.91-.07-8.05-.15-16.16-.22-24.29.01-.11.01-.2.02-.32.96.41 4.86 2.6 9.13 5.08 1.1.65 2.19 1.3 3.29 1.95v-.03c4.41 2.6 8.52 5.09 9.53 5.84.08 8.23.15 16.52.23 24.85h.65c-.02-.36-.04-.66-.04-.95.08-7.51.2-15.03.23-22.55 0-1.15.4-1.74 1.36-2.29 6.5-3.78 12.97-7.62 19.45-11.43.33-.19.69-.36 1.16-.59.03.59.07 1.04.07 1.49-.08 7.52-.19 15.03-.24 22.55-.01 1.04-.3 1.67-1.23 2.21-6.5 3.78-12.96 7.63-19.44 11.45-.06.04-.12.07-.19.11h.8c6.49-3.64 12.98-7.27 19.46-10.94.36-.2.68-.33 1-.36.31 0 .63.07.99.28 6.46 3.7 12.95 7.35 19.43 11.02H242c-7.1-4.21-13.97-8.28-20.88-12.38-.08-8.43-.15-16.83-.23-25.27 2.1.89 20.14 11.47 21.92 12.85.07 8.14.15 16.33.22 24.8h.68c-.03-.22-.06-.43-.06-.63.08-7.75.18-15.51.25-23.26.01-.68.13-1.18.79-1.57 6.9-4.05 13.79-8.12 20.68-12.18.1-.06.23-.1.47-.19v.02c.03.48.07.85.07 1.2-.09 7.66-.19 15.31-.25 22.97-.01.88-.25 1.42-1.03 1.88-6.68 3.9-13.33 7.84-19.99 11.76h1.17c6.47-3.64 12.95-7.26 19.41-10.91.35-.2.66-.31.98-.33.28.01.56.07.88.26 6.45 3.69 12.93 7.33 19.4 10.99h1.12c-6.64-3.93-13.28-7.87-19.93-11.79-.59-.35-.95-.7-.96-1.46-.05-7.95-.13-15.9-.19-23.86 0-.18.04-.36.09-.74.53.28.92.48 1.3.7 6.47 3.83 12.92 7.68 19.4 11.47.85.5 1.21 1.05 1.21 2.06.03 7.57.12 15.12.18 22.69 0 .29-.01.59-.03.93h.7c-.03-.21-.05-.42-.05-.62.08-7.7.18-15.41.25-23.11 0-.73.1-1.27.82-1.7 6.86-4.02 13.71-8.07 20.56-12.1.14-.08.31-.14.57-.25.03.49.06.81.06 1.13-.09 7.71-.19 15.41-.25 23.11-.01.81-.2 1.34-.95 1.78-6.67 3.9-13.32 7.84-19.98 11.76h.87c6.39-3.59 12.79-7.17 19.16-10.8.52-.3.97-.44 1.43-.44.38.03.78.16 1.22.41 6.34 3.65 12.72 7.23 19.09 10.83h1.46c-3.77-1.9-18.19-10.34-21.22-12.46-.08-8.2-.15-16.5-.23-25.17.44.14 1.74.82 3.5 1.78 6.14 3.64 12.11 7.18 18.13 10.74.1.06.19.13.28.19.08 8.29.15 16.59.23 24.91h.67c-.04-.14-.07-.28-.07-.42.08-7.86.19-15.71.24-23.57.01-.89.45-1.29 1.13-1.68 5.61-3.27 11.21-6.57 16.8-9.86.97-.57 1.92-1.17 2.89-1.74.32-.19.69-.35 1.13-.57.04.55.08.95.07 1.35-.09 7.61-.18 15.23-.25 22.84 0 .48-.03.89-.24 1.24-.01.01-.01.02-.02.02-.06.11-.15.2-.25.3-.09.08-.18.15-.29.22-.02.01-.03.03-.06.04-6.71 3.91-13.39 7.87-20.08 11.81h1.06c6.5-3.66 13.01-7.32 19.51-10.99.3-.17.59-.28.87-.3.23.01.47.06.74.21 3.98 2.27 7.97 4.52 11.96 6.78v-.06c2.57 1.45 5.14 2.91 7.7 4.36h1.31c-1.63-.84-5.14-2.83-8.87-5v-.09c-3.51-2.08-7.03-4.16-10.55-6.22-.27-.17-.52-.33-.74-.47-.72-.5-1-1.07-1-2.02-.02-7.52-.12-15.04-.18-22.55-.01-.41.03-.83.06-1.35.59.25 2.28 1.17 4.48 2.41 2.6 1.54 5.19 3.08 7.79 4.62v-.09l.15.09v-.03c4.41 2.6 8.52 5.09 9.53 5.84.08 8.23.15 16.52.23 24.85h.5c-.02-.36-.04-.66-.04-.95.08-7.51.2-15.03.23-22.55 0-1.15.4-1.74 1.36-2.29 6.5-3.78 12.97-7.62 19.45-11.43.36-.21.75-.38 1.3-.66.03.63.08 1.1.07 1.56-.08 7.52-.19 15.03-.24 22.55-.01 1.04-.3 1.67-1.23 2.21-6.5 3.78-12.96 7.63-19.44 11.45-.06.04-.12.07-.19.11h.66c6.49-3.64 12.98-7.27 19.46-10.94.75-.42 1.33-.54 2.14-.08 6.46 3.7 12.95 7.35 19.43 11.02h.97c-7.1-4.21-13.97-8.28-20.88-12.38-.08-8.45-.15-16.87-.23-25.33 1.15.31 20.23 11.49 22.06 12.9.07 8.14.15 16.33.22 24.8h.53c-.03-.22-.06-.43-.06-.63.08-7.75.18-15.51.25-23.26.01-.68.13-1.18.79-1.57 6.9-4.05 13.79-8.12 20.68-12.18.12-.07.27-.11.62-.24.03.53.08.9.07 1.28-.09 7.66-.19 15.31-.25 22.97-.01.88-.25 1.42-1.03 1.88-6.68 3.9-13.33 7.84-20 11.76h1.03c6.47-3.64 12.95-7.26 19.41-10.91.69-.39 1.25-.51 2.01-.08 6.45 3.69 12.93 7.33 19.4 10.99h.97c-6.64-3.93-13.28-7.87-19.93-11.79-.59-.35-.95-.7-.96-1.46-.05-7.95-.13-15.9-.19-23.86 0-.19.04-.38.1-.81.6.32 1.03.53 1.43.78 6.47 3.83 12.92 7.68 19.4 11.47.85.5 1.21 1.05 1.21 2.06.03 7.57.12 15.12.18 22.69 0 .29-.01.59-.03.93h.55c-.03-.21-.05-.42-.05-.62.08-7.7.18-15.41.25-23.11 0-.73.1-1.27.82-1.7 6.86-4.02 13.71-8.07 20.56-12.1.17-.1.35-.15.71-.31.03.53.07.86.07 1.19-.09 7.71-.19 15.41-.25 23.11-.01.81-.2 1.34-.95 1.78-6.67 3.9-13.32 7.84-19.98 11.76h.73c6.39-3.59 12.79-7.17 19.16-10.8 1-.57 1.76-.63 2.8-.03 6.34 3.65 12.72 7.23 19.09 10.83h1.31c-3.77-1.9-18.19-10.34-21.22-12.46-.08-8.32-.15-16.75-.23-25.55 7.55 4.47 14.76 8.75 22.06 13.08.08 8.3.15 16.6.23 24.94h.53c-.04-.14-.07-.28-.07-.42.08-7.86.19-15.71.24-23.57.01-.89.45-1.29 1.13-1.68 5.61-3.27 11.21-6.57 16.8-9.86.97-.57 1.92-1.17 2.89-1.74.36-.21.75-.38 1.27-.64.04.59.08 1.01.08 1.42-.09 7.61-.18 15.23-.25 22.84-.01.76-.07 1.37-.86 1.83-6.71 3.91-13.39 7.87-20.08 11.81h.91c6.5-3.66 13.01-7.32 19.51-10.99.6-.34 1.11-.46 1.76-.09 3.98 2.27 7.97 4.52 11.96 6.78v-.78c-3.68-2.18-7.36-4.36-11.05-6.51-.92-.54-1.24-1.14-1.24-2.2-.02-7.52-.12-15.04-.18-22.55-.01-.47.04-.94.07-1.56.53.27.92.44 1.28.66 3.71 2.2 7.41 4.4 11.12 6.59v-.85c-3.8-2.15-7.61-4.3-11.41-6.46-.17-.09-.32-.22-.62-.44.34-.26.59-.53.89-.7 3.71-2.09 7.43-4.18 11.14-6.27v-.71c-3.91 2.31-7.83 4.61-11.74 6.92-.12.07-.27.1-.61.22-.02-.54-.06-.91-.06-1.29.08-7.65.18-15.31.25-22.97.01-.8.17-1.34.93-1.79 3.75-2.19 7.49-4.39 11.23-6.6v-.83c-3.78 2.12-7.55 4.25-11.31 6.4-.97.55-1.69.55-2.67-.01-6.51-3.74-13.06-7.41-19.6-11.12-.37-.21-.72-.46-1.23-.78.37-.26.61-.47.88-.62 6.8-3.83 13.61-7.64 20.41-11.48.68-.39 1.21-.39 1.89-.01 3.87 2.2 7.76 4.39 11.64 6.59V210c-4.03-2.39-8.03-4.75-12.05-7.14-.08-8.43-.15-16.85-.23-25.65 4.17 2.47 8.24 4.89 12.28 7.28v-.84c-3.63-2.05-7.27-4.11-10.9-6.16-.29-.16-.54-.37-1.05-.72.61-.35.98-.57 1.35-.78 3.53-1.99 7.07-3.97 10.6-5.96v-.81c-3.52 2.07-7.03 4.15-10.55 6.22-.46.27-.93.53-1.64.94-.04-.7-.08-1.12-.08-1.54.08-7.56.19-15.12.23-22.69.01-1.06.35-1.67 1.27-2.2 3.59-2.09 7.18-4.2 10.76-6.32V143c-3.79 2.13-7.58 4.25-11.37 6.39-.69.39-1.25.51-2.01.07-6.78-3.87-13.58-7.69-20.37-11.53-.24-.14-.46-.32-.83-.57.44-.3.77-.56 1.13-.76 6.68-3.75 13.36-7.49 20.03-11.26.69-.39 1.25-.52 2.01-.09 3.8 2.17 7.61 4.33 11.42 6.48v-.78c-3.64-2.16-7.28-4.32-10.92-6.46-.71-.42-1-.89-1-1.74-.04-7.7-.13-15.41-.19-23.12 0-.37.05-.74.09-1.29.56.29.98.48 1.39.72 3.54 2.1 7.09 4.2 10.64 6.3v-.83c-3.49-1.97-6.98-3.94-10.47-5.92-.37-.21-.72-.46-1.23-.79.36-.26.6-.47.87-.62l10.83-6.09v-.69a9765 9765 0 0 0-10.51 6.21c-.41.24-.82.47-1.4.81-.07-.56-.15-.92-.15-1.28.08-7.71.18-15.42.25-23.14.01-.79.16-1.35.92-1.8 3.63-2.12 7.26-4.25 10.88-6.39v-.75c-3.74 2.1-7.48 4.19-11.2 6.31-.71.4-1.27.47-2.01.05-6.78-3.87-13.58-7.7-20.38-11.55-.25-.14-.47-.32-.89-.61.52-.33.83-.56 1.16-.75 6.51-3.66 13.03-7.3 19.52-11.01 1.1-.63 1.92-.7 3.06-.04 3.57 2.06 7.16 4.1 10.76 6.13v-.8c-3.91-2.32-7.78-4.61-11.69-6.93l-.24-25.28c.71.14 6.36 3.3 11.92 6.57v-.69c-3.56-2.01-7.11-4.03-10.67-6.04-.25-.13-.46-.32-.82-.57.33-.24.53-.42.76-.55 3.58-2.02 7.15-4.02 10.73-6.03v-.84c-3.49 2.05-6.98 4.09-10.47 6.14-.38.22-.75.44-1.26.73-.08-.44-.18-.75-.18-1.06.06-6.18.14-12.35.2-18.53h-.84c.06 6.47.12 13.01.18 19.73-7.52-4.46-14.76-8.75-22.06-13.07l-.06-6.66h-.83c-.02 1.82-.04 3.64-.05 5.46-.01.87-.23 1.42-1.02 1.88-6.66 3.89-13.29 7.83-19.94 11.76-.29.17-.6.3-1 .51-.08-.33-.21-.59-.2-.84.06-6.26.14-12.51.2-18.76h-.83c.06 6.48.12 13.03.18 19.78-7.55-4.48-14.77-8.76-22.12-13.11l-.06-6.67h-.83l-.06 5.58c-.01.68-.13 1.19-.79 1.57-6.91 4.04-13.8 8.12-20.7 12.18-.12.07-.27.09-.61.21-.02-.59-.06-1.02-.06-1.45.07-6.03.14-12.06.2-18.09H449l.18 19.62c-.65-.34-1.08-.54-1.48-.78-6.47-3.83-12.93-7.68-19.42-11.48-.86-.51-1.2-1.06-1.2-2.07l-.03-5.3h-.81l-.06 5.46c-.01.8-.18 1.34-.94 1.78-6.78 3.96-13.54 7.97-20.3 11.96-.21.12-.43.21-.82.39-.04-.51-.1-.92-.1-1.33.07-6.09.14-12.18.2-18.26h-.84c.04 6.14.1 12.28.16 18.42 0 .33-.05.65-.08 1.22-.6-.32-.99-.51-1.36-.73-6.51-3.86-13.01-7.72-19.53-11.55-.79-.46-1.17-.94-1.17-1.94 0-1.81-.02-3.61-.03-5.41h-.82l-.06 5.41c-.01.8-.19 1.34-.94 1.78-6.59 3.84-13.15 7.73-19.72 11.59-.04.02-.08.04-.11.07-.18.1-.35.21-.54.32-.16.09-.34.16-.6.28-.07-.36-.16-.65-.15-.93.06-6.18.14-12.35.2-18.53h-.98c.06 6.44.12 12.95.18 19.64-7.46-4.43-14.66-8.69-21.91-12.99l-.06-6.66h-.97l-.06 5.46c0 .87-.23 1.42-1.02 1.88-6.65 3.89-13.27 7.82-19.91 11.74-.26.14-.53.27-.91.45-.08-.29-.18-.53-.18-.77.06-6.26.14-12.51.2-18.76H312c.06 6.46.12 12.97.18 19.69-7.5-4.45-14.67-8.7-21.97-13.02l-.06-6.67h-.97l-.06 5.58c0 .4-.06.74-.24 1.03-.06.09-.12.19-.21.27-.03.03-.08.06-.12.09-.09.07-.18.15-.29.22-6.81 3.98-13.6 7.99-20.39 11.99-.14.07-.3.15-.48.23-.06.02-.14.04-.23.07-.02-.57-.06-.98-.05-1.4.07-6.03.14-12.06.2-18.09h-.99c.06 6.4.12 12.8.17 19.34 0 .07 0 .13-.01.21-.56-.29-.96-.48-1.33-.7-6.47-3.83-12.93-7.68-19.42-11.48-.86-.51-1.2-1.06-1.2-2.07l-.03-5.3h-.96c-.02 1.82-.05 3.64-.06 5.46-.01.8-.18 1.34-.94 1.78-6.78 3.96-13.54 7.97-20.3 11.96-.18.1-.39.19-.68.33-.04-.47-.1-.87-.09-1.26.07-6.09.14-12.18.2-18.26h-.99c.04 6.14.1 12.28.16 18.42 0 .31-.04.63-.08 1.14-.52-.27-.88-.46-1.22-.66-6.51-3.86-13.01-7.72-19.53-11.55-.79-.46-1.17-.94-1.17-1.94 0-1.81-.02-3.61-.03-5.41h-.96l-.06 5.41c-.01.8-.19 1.34-.94 1.78-6.78 3.96-13.54 7.96-20.31 11.94-.17.1-.37.18-.66.32-.02-.11-.04-.2-.06-.29-.02-.39-.04-.68-.04-.97.07-6.06.14-12.13.2-18.19H175c.06 6.46.12 12.94.18 19.62-7.48-4.43-14.65-8.68-21.91-12.99l-.06-6.63h-.97c-.02 1.79-.04 3.58-.05 5.37-.01.93-.25 1.5-1.1 2-6.62 3.86-13.21 7.78-19.81 11.67-.28.16-.58.29-.99.49-.03-.11-.06-.21-.09-.31-.02-.41-.04-.7-.03-1 .07-6.07.15-12.15.2-18.22h-.99c.06 6.48.12 12.97.18 19.67-7.53-4.46-14.74-8.74-21.97-13.03l-.06-6.64h-.97l-.06 5.47c-.01.82-.23 1.33-.97 1.76-6.7 3.92-13.37 7.87-20.06 11.81-.24.15-.53.27-.89.44-.04-.52-.1-.92-.09-1.32.07-6.06.14-12.11.2-18.17h-.99c.05 5.94.09 11.88.14 17.82 0 .5-.02 1-.04 1.72l-.16-.08c-2.96-1.74-5.88-3.47-8.78-5.18v.05C70.93 10.73 67 8.41 63.05 6.1c-.86-.51-1.2-1.06-1.2-2.07l-.03-5.3h-.81c-.02 1.82-.05 3.64-.06 5.46-.01.8-.18 1.34-.94 1.78-6.78 3.96-13.54 7.97-20.3 11.96-.21.12-.43.21-.82.39-.04-.51-.1-.92-.1-1.33.07-6.09.14-12.18.2-18.26h-.84c.04 6.14.1 12.28.16 18.42 0 .33-.05.65-.08 1.22-.6-.32-.99-.51-1.36-.73-6.51-3.86-13.01-7.72-19.53-11.55-.79-.46-1.17-.94-1.17-1.94 0-1.81-.02-3.61-.03-5.41h-.82l-.06 5.41c-.01.8-.19 1.34-.94 1.78C7.53 9.89.77 13.89-5.99 17.87c-.21.12-.44.21-.85.4-.03-.59-.06-.97-.06-1.35.07-6.06.13-12.12.2-18.19h-.84c.06 6.49.12 13 .18 19.71-5.16-3.05-10.16-6.01-15.15-8.97zm15.7 63.28c.01-.91.49-1.28 1.15-1.66 5.31-3.11 10.61-6.23 15.92-9.34 1.59-.94 3.2-1.85 5.01-2.89.04.57.09.95.08 1.32-.08 7.66-.19 15.33-.25 22.99-.01.86-.23 1.42-1.02 1.88C7.43 88.95.8 92.88-5.85 96.8c-.29.17-.6.31-1 .51-.08-.33-.21-.59-.2-.85.07-7.9.18-15.8.24-23.71zm89.26-1.61c.69.41 1.05.83 1.05 1.7.04 7.76.12 15.52.19 23.27 0 .31-.04.63-.07 1.14-.47-.24-.79-.4-1.09-.57-2.56-1.51-5.11-3.03-7.67-4.54v.04c-3.97-2.36-7.94-4.71-11.93-7.04-.9-.53-1.28-1.09-1.29-2.17-.02-7.51-.11-15.03-.17-22.54 0-.47.03-.94.05-1.59.48.22.83.36 1.15.54 4.01 2.38 8.03 4.75 12.04 7.13v.04c2.58 1.54 5.16 3.07 7.74 4.59zM494.98 177.3c.57.3 1 .5 1.4.74 6.47 3.83 12.92 7.68 19.42 11.48.92.54 1.26 1.12 1.26 2.18.02 7.52.11 15.04.18 22.56 0 .47-.03.94-.07 1.59-.57-.3-1-.5-1.4-.74-6.47-3.83-12.93-7.69-19.42-11.48-.92-.54-1.26-1.12-1.26-2.18-.02-7.52-.11-15.04-.18-22.56 0-.48.04-.94.07-1.59zm0-2.15c.08-7.75.18-15.51.25-23.26.01-.69.14-1.18.8-1.56 6.9-4.04 13.79-8.12 20.68-12.18.12-.07.27-.11.61-.24.03.53.07.91.07 1.28-.09 7.66-.18 15.31-.25 22.97-.01.79-.15 1.35-.91 1.8-6.78 3.96-13.54 7.96-20.3 11.95-.21.12-.43.21-.8.4-.07-.45-.15-.81-.15-1.16zm21.59 13.78c-6.78-3.88-13.59-7.7-20.38-11.55-.25-.14-.48-.32-.85-.57.37-.28.64-.54.95-.72 6.68-3.76 13.37-7.5 20.04-11.28.8-.45 1.43-.55 2.28-.06 6.69 3.83 13.42 7.6 20.13 11.4.29.16.56.37 1.1.73-.64.37-1.04.61-1.46.84-6.55 3.69-13.11 7.36-19.66 11.06-.73.41-1.32.62-2.15.15zm-.07-79.1c-6.56-3.76-13.16-7.46-19.75-11.19-.37-.21-.72-.46-1.22-.78.4-.29.68-.54 1-.72 6.68-3.76 13.37-7.5 20.03-11.29.81-.46 1.43-.51 2.28-.03 6.65 3.81 13.33 7.56 20 11.33.33.18.64.41 1.21.79-.66.38-1.07.62-1.48.86-6.51 3.65-13.04 7.29-19.53 10.98-.91.52-1.6.59-2.54.05zm.78-26.67c-.01.78-.13 1.35-.91 1.8-6.79 3.96-13.55 7.97-20.32 11.96-.2.12-.43.21-.79.37-.06-.45-.15-.81-.14-1.17.08-7.71.19-15.42.24-23.13.01-.97.36-1.48 1.17-1.96 6.66-3.89 13.3-7.82 19.94-11.74.25-.15.52-.25.99-.46.03.59.07.97.07 1.34-.08 7.66-.17 15.32-.25 22.99zm-.1 28.27c.07 8.36.15 16.78.23 25.51-7.51-4.45-14.74-8.73-22.06-13.07-.08-8.43-.15-16.86-.23-25.31 1.12.25 19.67 11.08 22.06 12.87zm-21.56 13.69c6.91 3.93 13.83 7.84 20.75 11.76.16.09.3.23.66.51-.6.35-1.01.59-1.43.83-6.5 3.66-13.02 7.29-19.5 11-.97.56-1.68.56-2.66 0-6.51-3.75-13.06-7.41-19.6-11.11-.37-.21-.73-.46-1.24-.78.36-.26.6-.47.86-.63 6.8-3.82 13.61-7.64 20.41-11.47.59-.36 1.1-.48 1.75-.11zm-46.29 52.14c7.48 4.38 14.7 8.7 22 13.02.08 8.46.15 16.88.23 25.6-.74-.41-1.17-.64-1.59-.89-6.38-3.78-12.76-7.59-19.16-11.33-.94-.55-1.36-1.12-1.36-2.27 0-7.42-.1-14.84-.17-22.26.01-.53.03-1.05.05-1.87zm-.04-2.44c.08-7.61.18-15.22.25-22.82.01-.78.13-1.35.9-1.8 6.82-3.98 13.62-8.01 20.43-12.03.17-.1.35-.17.64-.3.07.35.19.66.18.96-.08 7.85-.18 15.7-.25 23.55-.01.73-.29 1.15-.9 1.51-6.77 3.97-13.54 7.97-20.3 11.95-.24.14-.5.23-.88.39-.03-.56-.07-.99-.07-1.41zm21.37 13.98c-6.56-3.76-13.15-7.46-19.73-11.18-.37-.21-.72-.46-1.23-.78.45-.31.78-.57 1.13-.77 6.68-3.75 13.36-7.5 20.03-11.26.69-.39 1.25-.52 2.01-.09 6.78 3.87 13.58 7.7 20.37 11.54.25.14.47.31.94.64-.59.34-.97.56-1.35.77-6.59 3.7-13.2 7.39-19.77 11.13-.87.5-1.52.51-2.4 0zm1.61 2.66c.01-.97.36-1.48 1.17-1.96 6.66-3.89 13.3-7.82 19.94-11.74.24-.15.52-.25.99-.46.03.59.07.97.07 1.34-.09 7.66-.19 15.32-.24 22.99-.01.87-.26 1.41-1.04 1.87-6.66 3.89-13.3 7.82-19.94 11.74-.29.17-.6.31-1.07.55-.05-.53-.11-.93-.11-1.34.08-7.66.18-15.33.23-22.99zm22.13-15.09c-.65-.36-1.07-.59-1.49-.83-6.42-3.8-12.83-7.63-19.28-11.39-.91-.53-1.28-1.1-1.28-2.17-.02-7.52-.11-15.03-.17-22.54 0-.47.03-.94.06-1.58.48.23.83.36 1.15.55 6.63 3.93 13.26 7.86 19.9 11.78.63.37 1.02.73 1.03 1.57.04 7.86.13 15.71.19 23.57 0 .25-.06.53-.11 1.04zm-22.16-41c.09-7.57.19-15.13.24-22.7.01-.97.25-1.59 1.15-2.11 6.63-3.85 13.22-7.76 19.82-11.65.29-.17.6-.3 1.02-.52.07.4.18.71.17 1.02-.08 7.81-.18 15.62-.25 23.43-.01.76-.21 1.25-.91 1.65-6.78 3.98-13.54 7.98-20.31 11.98-.21.12-.43.2-.88.41-.02-.65-.06-1.08-.05-1.51zm22.34-38.06c-3.82-2.06-7.38-4.31-11-6.43-3.66-2.15-7.3-4.33-10.97-6.51-.08-8.45-.15-16.85-.23-25.44.48.2.84.31 1.14.49 6.68 3.95 13.35 7.92 20.04 11.86.62.36.9.75.9 1.49.05 7.91.13 15.82.2 23.73 0 .17-.04.37-.08.81zm-21.43-11.54c6.65 3.81 13.33 7.56 20 11.33.33.19.63.42 1.18.78-1.23.71-2.24 1.3-3.25 1.87-5.87 3.31-11.76 6.58-17.61 9.92-1 .57-1.75.65-2.79.04-6.47-3.73-12.98-7.38-19.48-11.06-.41-.23-.81-.49-1.35-.82.36-.28.59-.52.86-.68 6.72-3.79 13.45-7.55 20.16-11.36.82-.45 1.44-.5 2.28-.02zm-1.5-2.44c-.01.69-.15 1.18-.8 1.56-6.91 4.04-13.79 8.11-20.68 12.17-.12.08-.27.1-.6.23-.03-.54-.07-.92-.06-1.29.08-7.66.18-15.31.25-22.97.01-.8.18-1.34.93-1.78 6.78-3.96 13.54-7.97 20.3-11.96.21-.12.43-.21.76-.37.06.38.17.69.16 1-.08 7.8-.18 15.61-.26 23.41zm-22.11 14.9c7.42 4.4 14.67 8.69 22 13.04.08 8.45.16 16.88.24 25.48-.42-.15-.73-.21-.99-.36-6.77-4-13.53-8.02-20.29-12.02-.55-.32-.85-.67-.86-1.36-.04-8.01-.13-16.02-.19-24.02-.01-.14.02-.29.09-.76zm.72 27.08c6.65 3.81 13.33 7.56 20 11.34.33.19.63.41 1.21.79-.66.38-1.07.62-1.48.85-6.52 3.65-13.04 7.29-19.53 10.98-.9.51-1.59.58-2.53.04-6.56-3.76-13.16-7.47-19.75-11.19-.37-.21-.73-.46-1.22-.77.4-.3.68-.54.99-.72 6.68-3.76 13.37-7.5 20.03-11.29.82-.46 1.44-.51 2.28-.03zm-45.79 52.37c6.8 4.02 13.6 8.06 20.4 12.08.55.33.84.69.85 1.38.05 8 .13 16 .19 24 0 .14-.04.29-.1.66-.52-.27-.91-.44-1.28-.66-6.55-3.87-13.09-7.77-19.65-11.63-.75-.44-1.1-.9-1.1-1.82-.03-7.71-.12-15.42-.19-23.12 0-.34.03-.68.05-1.14.33.09.61.12.83.25zm-.81-2.9c.08-7.52.19-15.03.24-22.55.01-1.04.29-1.67 1.23-2.22 6.54-3.8 13.05-7.66 19.57-11.5.36-.21.75-.38 1.3-.66.03.63.08 1.1.07 1.56-.08 7.52-.19 15.03-.24 22.55-.01 1.04-.31 1.67-1.24 2.21-6.5 3.79-12.96 7.63-19.43 11.46-.4.24-.81.46-1.42.82-.04-.74-.08-1.2-.08-1.67zm21.24 13.94c-6.56-3.76-13.15-7.46-19.73-11.18-.36-.21-.7-.47-1.24-.83.58-.33.98-.57 1.39-.8 6.59-3.7 13.2-7.38 19.77-11.12.83-.47 1.44-.48 2.27 0 6.6 3.78 13.24 7.5 19.86 11.25.36.21.7.47 1.17.78-.49.31-.83.56-1.2.77-6.59 3.71-13.19 7.4-19.76 11.14-.91.52-1.61.51-2.53-.01zm1.75 2.67c.01-.77.24-1.25.92-1.65 6.78-3.97 13.53-7.97 20.3-11.96.21-.12.43-.22.8-.4.06.44.14.79.14 1.15-.08 7.75-.18 15.5-.25 23.26-.01.68-.13 1.19-.79 1.57-6.95 4.07-13.88 8.16-20.81 12.24-.08.05-.19.06-.49.15-.03-.45-.07-.77-.07-1.1.08-7.76.18-15.51.25-23.26zm.12-28.03c-.08-8.42-.16-16.85-.23-25.3 1.11.22 19.48 10.93 22.07 12.85.07 8.35.15 16.77.23 25.53-7.56-4.48-14.77-8.76-22.07-13.08zm-.23-27.61c.08-7.81.19-15.62.24-23.42.01-.94.44-1.38 1.17-1.81 5.95-3.47 11.88-6.96 17.81-10.45.96-.56 1.93-1.11 3.14-1.81.02.73.05 1.21.04 1.68-.08 7.56-.19 15.13-.24 22.69-.01.87-.26 1.41-1.04 1.88-6.66 3.89-13.3 7.82-19.94 11.74-.29.17-.6.31-1.02.52-.05-.4-.16-.71-.16-1.02zm22.38-38.37c-.65-.36-1.07-.59-1.49-.84-6.43-3.8-12.83-7.63-19.28-11.39-.9-.53-1.28-1.09-1.29-2.17-.02-7.51-.11-15.03-.17-22.54 0-.47.03-.94.05-1.59.48.22.83.36 1.15.54 6.63 3.93 13.26 7.86 19.9 11.78.62.37 1.03.72 1.03 1.56.04 7.86.12 15.71.19 23.57.01.29-.04.57-.09 1.08zm-21.57-11.66c6.82 3.88 13.66 7.74 20.5 11.61.21.12.39.27.77.54-.48.31-.79.54-1.12.72-6.68 3.75-13.36 7.5-20.02 11.26-.75.43-1.35.49-2.14.04-6.73-3.84-13.49-7.64-20.24-11.46-.25-.14-.48-.31-.85-.56.37-.28.63-.53.94-.7 6.76-3.8 13.53-7.59 20.28-11.4.66-.37 1.19-.44 1.88-.05zm-1.38-2.59c-.01.89-.29 1.41-1.06 1.86-6.7 3.91-13.37 7.86-20.06 11.8-.25.15-.52.26-.89.44-.06-.38-.17-.69-.17-1 .08-7.8.18-15.6.26-23.41.01-.69.16-1.18.81-1.56 6.91-4.04 13.79-8.11 20.68-12.17.12-.07.27-.1.6-.23.03.54.07.92.07 1.3-.08 7.65-.18 15.31-.24 22.97zm-20.79 15.91c6.55 3.88 13.1 7.77 19.66 11.64.7.41 1.04.84 1.04 1.71.04 7.77.12 15.53.19 23.29 0 .29-.02.58-.03.84-.09.06-.13.09-.17.11-.04.02-.1.05-.13.03-.27-.12-.54-.23-.79-.38-6.97-4.13-13.94-8.26-20.93-12.41-.08-8.46-.16-16.84-.23-25.53.64.31 1.03.48 1.39.7zm-.5 26.28c6.61 3.78 13.25 7.51 19.87 11.25.33.19.64.42 1.22.79-.65.37-1.06.62-1.47.85-6.56 3.68-13.11 7.36-19.66 11.05-.73.41-1.31.61-2.15.14-6.78-3.88-13.58-7.7-20.38-11.55-.25-.14-.48-.32-.84-.57.37-.28.64-.54.96-.72 6.67-3.76 13.37-7.49 20.03-11.29.9-.48 1.56-.44 2.42.05zm-45.6 78.01c-.32-.21-.59-.39-.79-.54-.08-8.38-.15-16.75-.23-25.5 4.12 2.44 8.14 4.83 12.13 7.2v-.05c3.28 1.95 6.55 3.88 9.83 5.83l.24 25.28c-.53-.09-5.06-2.62-9.92-5.44V210c-3.77-2.23-7.51-4.44-11.26-6.67zm.56-27.88c-.22.13-.45.26-.7.4-.22.12-.46.23-.8.39-.04-.61-.07-1.01-.07-1.4.08-7.56.19-15.12.23-22.69.01-1.06.35-1.67 1.27-2.2 3.59-2.09 7.18-4.2 10.76-6.32v-.08c2.97-1.75 5.93-3.5 8.9-5.25.28-.17.6-.28 1.04-.49.05.48.11.85.11 1.21-.09 7.71-.18 15.42-.25 23.13-.01.81-.2 1.34-.95 1.78-3 1.75-6 3.52-9 5.28v-.01c-3.51 2.09-7.02 4.17-10.54 6.25zm19.71 13.35c-3-1.72-6.01-3.43-9.02-5.13v-.03c-3.63-2.05-7.27-4.11-10.9-6.16-.28-.16-.53-.36-1.01-.69.12-.09.23-.17.33-.25.4-.23.69-.4.98-.56 3.53-1.99 7.07-3.97 10.6-5.96v-.08c3.03-1.7 6.05-3.41 9.07-5.12.81-.46 1.43-.52 2.28-.03 6.65 3.81 13.33 7.56 20 11.33.33.19.64.41 1.22.79-.66.38-1.07.62-1.48.86-6.51 3.65-13.04 7.29-19.53 10.98-.91.52-1.6.59-2.54.05zm1.61 2.65c.01-.8.18-1.34.94-1.78 6.74-3.94 13.45-7.92 20.17-11.88.25-.15.52-.26.94-.47.04.51.11.92.1 1.33-.08 7.65-.18 15.31-.25 22.97-.01.8-.17 1.35-.93 1.79-6.78 3.96-13.55 7.96-20.31 11.94-.21.12-.43.21-.86.41-.03-.59-.06-.96-.06-1.34.1-7.66.2-15.32.26-22.97zm22.15-15.15c-.46-.22-.81-.36-1.13-.55-6.64-3.93-13.27-7.88-19.92-11.79-.71-.42-1-.88-1.01-1.72-.04-7.76-.13-15.53-.19-23.29-.01-.32.04-.65.08-1.13.42.2.72.31 1 .47 6.68 3.96 13.35 7.93 20.04 11.87.71.42 1.01.88 1.01 1.72.04 7.76.13 15.52.2 23.29 0 .33-.05.65-.08 1.13zm-22.19-40.89c.08-7.61.18-15.21.24-22.82.01-.86.2-1.42 1-1.9 6.65-3.88 13.28-7.82 19.92-11.74.32-.19.67-.33 1.17-.59.03.61.07 1.08.06 1.55-.08 7.51-.19 15.02-.23 22.53-.01 1.06-.34 1.66-1.26 2.19-6.49 3.78-12.95 7.62-19.42 11.43-.4.24-.82.47-1.4.81-.03-.62-.08-1.04-.08-1.46zm.36-51.05c-.08-8.5-.15-16.89-.23-25.22.14-.08.18-.11.22-.12.04-.02.1-.04.13-.02.26.13.53.24.78.39 6.96 4.13 13.93 8.26 20.93 12.41.08 8.47.15 16.89.23 25.64-7.49-4.45-14.73-8.73-22.06-13.08zm.39 1.31c6.82 3.9 13.66 7.74 20.49 11.61.2.12.39.27.71.5-.37.27-.64.52-.95.69-6.72 3.78-13.44 7.56-20.15 11.35-.69.39-1.25.54-2.02.1-3.14-1.8-6.28-3.58-9.43-5.36v-.04c-3.49-1.97-6.98-3.94-10.47-5.92-.37-.21-.72-.46-1.23-.79.36-.26.6-.47.87-.62l10.83-6.09v-.08c3.11-1.75 6.22-3.49 9.33-5.24.69-.38 1.25-.55 2.02-.11zm-1.33-2.5c-.01.86-.23 1.42-1.02 1.88-3.05 1.78-6.09 3.58-9.13 5.37v-.01a9765 9765 0 0 0-10.51 6.21c-.15.09-.31.18-.47.27-.23.13-.49.25-.8.4-.06-.48-.13-.82-.13-1.15.08-7.71.18-15.42.25-23.14.01-.79.16-1.35.92-1.8 3.64-2.12 7.26-4.25 10.88-6.39v-.06l5.16-3.03c1.59-.94 3.2-1.85 5.01-2.89.04.57.09.95.08 1.32-.08 7.69-.18 15.36-.24 23.02zM358.3 98.46c.09.03.18.06.27.08.36.18.69.34.98.51 3.54 2.1 7.09 4.2 10.64 6.3v-.04c3.07 1.82 6.13 3.63 9.2 5.45.55.33.86.68.86 1.37.05 8 .12 16 .19 24.01 0 .14-.04.28-.1.67-.52-.26-.91-.43-1.27-.65-2.91-1.73-5.82-3.45-8.74-5.18v-.03c-3.64-2.16-7.28-4.32-10.92-6.46-.71-.42-1-.89-1-1.74-.04-7.7-.13-15.41-.19-23.12 0-.34.04-.69.08-1.17zm-.01 26.59c.15.04.31.1.48.2 3.8 2.17 7.61 4.33 11.42 6.48v-.04l8.76 4.95c.33.18.63.4 1.08.7-.43.29-.72.53-1.04.71-2.93 1.65-5.87 3.3-8.8 4.95-3.79 2.13-7.58 4.25-11.37 6.39-.14.08-.28.14-.41.19-.09.03-.17.06-.25.08-.02 0-.03.01-.05.01-.22.04-.44.04-.67-.01-.15-.05-.31-.11-.48-.2-6.78-3.87-13.58-7.69-20.37-11.53-.24-.14-.46-.32-.83-.57.44-.3.77-.56 1.13-.76 6.68-3.75 13.36-7.49 20.03-11.26.33-.19.63-.31.94-.34h.02c.12-.01.26.02.41.05zm-41.65 54.73c5.4 3.2 10.79 6.41 16.21 9.57.15.09.29.19.43.27.78.51 1.1 1.08 1.1 2.07.02 7.52.11 15.04.18 22.56 0 .45-.03.91-.06 1.51-.5-.26-.9-.45-1.26-.67-6.47-3.83-12.93-7.69-19.42-11.48-.92-.54-1.26-1.12-1.26-2.18-.02-7.52-.11-15.04-.18-22.56-.01-.41.02-.83.05-1.36.56.25 2.14 1.1 4.21 2.27zm-4.2-4.63c.08-7.75.18-15.51.25-23.26 0-.69.14-1.18.8-1.56 6.9-4.04 13.79-8.12 20.68-12.18.1-.06.24-.1.47-.18.03.5.07.87.06 1.23-.09 7.66-.18 15.31-.25 22.97-.01.67-.11 1.17-.6 1.58-.05.04-.11.08-.17.12-.05.03-.09.06-.14.09-6.78 3.96-13.54 7.96-20.3 11.95-.13.07-.28.15-.45.23-.07.03-.13.06-.22.1-.06-.42-.14-.76-.13-1.09zm21.92 13.93-.06-.03c-.09-.04-.17-.08-.27-.13-6.78-3.88-13.59-7.7-20.38-11.55-.25-.14-.48-.32-.85-.57.37-.28.64-.54.95-.72 6.68-3.76 13.37-7.5 20.04-11.28.39-.22.75-.35 1.1-.37.32.01.65.09 1.03.31 6.69 3.83 13.42 7.6 20.13 11.4.28.16.54.35 1.04.69-.45.29-.78.52-1.11.72-.1.05-.19.11-.29.16-6.55 3.69-13.11 7.36-19.66 11.06-.16.09-.32.17-.47.24-.33.13-.64.2-.99.13a.83.83 0 0 1-.21-.06zm1.83-50.75c6.73 3.98 13.44 7.97 20.16 11.94.54.32.9.63.9 1.34.04 8.06.12 16.11.18 24.17 0 .08-.04.18-.11.42-3.7-2.01-7.23-4.23-10.82-6.33-3.66-2.15-7.3-4.33-10.97-6.5-.08-8.45-.15-16.82-.23-25.36.37.11.66.18.89.32zm-.86-2.9c.09-7.65.18-15.31.25-22.97.01-.8.19-1.33.95-1.77 6.74-3.94 13.45-7.92 20.17-11.88.22-.13.46-.23.77-.38.05.42.12.77.12 1.12-.08 7.71-.18 15.41-.25 23.11-.01.81-.18 1.34-.94 1.79-6.77 3.95-13.52 7.95-20.28 11.93-.2.11-.42.2-.74.35-.02-.57-.06-.94-.05-1.3zm.08 56.27c.01-1.05.35-1.67 1.26-2.2 6.45-3.75 12.86-7.56 19.29-11.34.42-.24.85-.49 1.3-.75.08.38.19.67.18.96-.08 7.85-.18 15.71-.26 23.57 0 .1-.01.19-.02.29-.13.56-.46.96-1.01 1.32-6.81 4-13.61 8.02-20.42 12.03-.1.06-.23.09-.48.18-.01-.06-.03-.11-.04-.17-.02-.52-.05-.94-.04-1.35.09-7.51.2-15.02.24-22.54zm17.95-96.84c-5.58-3.3-11.15-6.61-16.73-9.9-.08-.05-.17-.11-.25-.16-.46-.31-.72-.66-.72-1.29-.05-8.01-.13-16.01-.19-24.02 0-.1.02-.21.05-.43.53.21 2 1 3.94 2.07 5.86 3.47 11.64 6.9 17.46 10.35.19.13.36.24.51.34.08 8.39.15 16.76.24 25.28-.41-.1-2.06-.98-4.31-2.24zm-17.74-9.27c.17.06.35.13.54.24 6.65 3.81 13.33 7.56 20 11.33.31.17.61.39 1.13.74-.42.28-.72.51-1.03.69-.13.07-.25.15-.37.22-6.41 3.6-12.83 7.18-19.22 10.81-.1.06-.21.12-.31.18-.22.12-.43.22-.63.29-.01 0-.02.01-.03.01-.15.05-.31.07-.46.09-.4.01-.8-.08-1.26-.35-6.56-3.76-13.16-7.46-19.75-11.19-.37-.21-.72-.46-1.22-.78.4-.29.68-.54 1-.72 6.68-3.76 13.37-7.5 20.03-11.29.36-.2.68-.31 1-.34.18-.01.38.02.58.07zm-1.02-2.43c0 .44-.05.82-.23 1.14-.16.26-.39.49-.73.69-6.73 3.93-13.43 7.9-20.14 11.85a19 19 0 0 1-.64.32c-.05.02-.09.04-.15.07-.06-.42-.14-.77-.13-1.11.08-7.71.19-15.42.24-23.13.01-.97.36-1.48 1.17-1.96 6.66-3.89 13.3-7.82 19.94-11.74.22-.13.47-.23.85-.4.03.55.07.92.07 1.28-.08 7.66-.18 15.32-.25 22.99zm-12.98 20.46c3.01 1.78 6.01 3.56 9 5.33 1.88 1.15 3.32 2.06 3.87 2.47.07 8.23.15 16.52.23 25.12-.4-.11-2.09-1.01-4.39-2.3-5.63-3.33-11.14-6.6-16.69-9.89-.33-.22-.61-.41-.82-.56-.08-8.39-.15-16.78-.23-25.19.89.38 4.76 2.55 9.03 5.02zm-9.04 21.35c.12.04.23.07.36.15 6.91 3.93 13.83 7.84 20.75 11.76.14.08.28.21.56.43-.29.23-.51.43-.75.57-.03.02-.07.04-.1.06-.79.45-1.58.89-2.37 1.34-4.48 2.52-8.96 5.04-13.43 7.57-1.43.81-2.86 1.61-4.29 2.42-.39.21-.75.33-1.1.35-.42 0-.84-.12-1.32-.4-6.51-3.75-13.06-7.41-19.6-11.11-.37-.21-.73-.46-1.24-.78.36-.26.6-.47.86-.63 6.8-3.82 13.61-7.64 20.41-11.47.23-.13.45-.21.66-.26.2-.05.39-.04.6 0zm-45.79 52.41c.14.07.27.13.39.19 7.12 4.17 14.02 8.3 20.98 12.41.24.21.41.45.49.76.07 8.1.15 16.18.22 24.51-.01.15-.03.31-.05.51-.61-.34-1.01-.56-1.39-.78-6.38-3.78-12.76-7.59-19.16-11.33-.94-.55-1.36-1.12-1.36-2.27 0-7.42-.1-14.84-.17-22.26.01-.49.03-.99.05-1.74zm-.04-2.56c.08-7.61.18-15.22.25-22.82.01-.78.13-1.35.9-1.8 6.82-3.98 13.62-8.01 20.43-12.03.14-.08.3-.15.51-.24.07.33.17.62.17.9-.08 7.85-.18 15.7-.25 23.55 0 .35-.07.63-.21.87-.02.04-.06.08-.09.12-.15.2-.34.37-.6.53-6.77 3.97-13.54 7.97-20.3 11.95-.2.12-.44.21-.74.33-.03-.54-.07-.95-.07-1.36zm21.37 13.98c-6.56-3.76-13.15-7.46-19.73-11.18-.37-.21-.72-.46-1.23-.78.45-.31.78-.57 1.13-.77 6.68-3.75 13.36-7.5 20.03-11.26.33-.19.63-.31.94-.34a1.892 1.892 0 0 1 .93.26c6.78 3.87 13.58 7.7 20.37 11.54.23.13.45.3.85.58-.39.27-.67.5-.98.67-.1.06-.19.11-.29.16-5.98 3.36-11.97 6.71-17.94 10.1-.62.35-1.24.7-1.86 1.04-.19.11-.38.19-.55.25-.03.01-.05.01-.08.02-.12.04-.25.05-.37.06-.38.01-.77-.09-1.22-.35zm1.61 2.66c.01-.97.36-1.48 1.17-1.96 6.66-3.89 13.3-7.82 19.94-11.74.21-.13.45-.22.81-.39.02.09.03.16.05.24.03.41.05.72.05 1.02-.09 7.66-.19 15.32-.24 22.99-.01.87-.26 1.41-1.04 1.87-6.66 3.89-13.3 7.82-19.94 11.74-.25.14-.51.27-.88.45-.02.01-.03.01-.06.03-.04-.49-.1-.88-.1-1.27.09-7.65.19-15.32.24-22.98zm21.99-15.17c-.57-.31-.97-.53-1.35-.76-6.42-3.8-12.83-7.63-19.28-11.39-.91-.53-1.28-1.1-1.28-2.17-.02-7.52-.11-15.03-.17-22.54 0-.45.03-.91.06-1.51.4.18.72.32 1 .49 6.63 3.93 13.26 7.86 19.9 11.78.63.37 1.02.73 1.03 1.57.04 7.86.13 15.71.19 23.57 0 .24-.05.51-.1.96zm-22.02-40.92c.09-7.57.19-15.13.24-22.7.01-.97.25-1.59 1.16-2.11 6.63-3.85 13.22-7.76 19.82-11.65.25-.15.54-.28.89-.46.07.37.16.66.16.95-.08 7.81-.18 15.62-.25 23.43 0 .36-.06.65-.18.9l-.09.15c-.04.06-.09.13-.14.18-.04.05-.08.09-.12.14-.11.1-.23.2-.38.28-2.81 1.65-5.61 3.31-8.42 4.96-1.6.94-3.19 1.88-4.79 2.82-2.28 1.35-4.56 2.69-6.85 4.04-.25.14-.53.27-.87.44-.04.02-.09.04-.13.06-.02-.6-.06-1.01-.05-1.43zm22.2-38.14c-3.76-2.04-7.28-4.26-10.87-6.35-3.66-2.15-7.3-4.33-10.97-6.51-.08-8.43-.15-16.81-.23-25.38.4.16.73.27 1 .43 6.68 3.95 13.35 7.92 20.04 11.86.62.36.9.75.9 1.49.05 7.91.13 15.82.2 23.73 0 .16-.03.35-.07.73zm-21.98-11.7c.17.06.35.13.55.24 6.65 3.81 13.33 7.56 20 11.33.3.17.59.38 1.06.69-.25.21-.44.39-.64.53-.49.28-.95.55-1.39.8-1.44.81-2.87 1.62-4.31 2.42-3.47 1.95-6.94 3.9-10.4 5.86-1.4.79-2.79 1.57-4.19 2.36-.38.2-.73.31-1.07.34-.43.01-.87-.11-1.37-.4-6.47-3.73-12.98-7.38-19.48-11.06-.39-.22-.78-.47-1.28-.78a.265.265 0 0 1-.06-.05c.35-.28.58-.52.85-.67 6.72-3.79 13.45-7.55 20.16-11.36.29-.16.55-.25.81-.31.24-.01.5 0 .76.06zm-.96-2.2c-.01.69-.16 1.18-.8 1.56-6.91 4.04-13.79 8.11-20.68 12.17-.01.01-.02.01-.04.02-.1.04-.22.08-.42.15-.03-.51-.07-.88-.06-1.24.08-7.66.18-15.31.25-22.97.01-.8.18-1.34.93-1.78 6.78-3.96 13.54-7.97 20.3-11.96.17-.1.38-.19.63-.31.06.35.15.65.15.94-.08 7.81-.18 15.62-.26 23.42zm-21.98 14.99c7.37 4.37 14.58 8.64 21.87 12.96.08 8.43.15 16.85.23 25.44-.34-.11-.62-.18-.85-.31-6.77-4-13.53-8.02-20.29-12.02-.55-.32-.85-.67-.86-1.36-.04-8.01-.13-16.02-.19-24.02.01-.15.04-.3.09-.69zm.04 26.75c.18.06.36.13.56.25 6.65 3.81 13.33 7.56 20 11.34.31.17.6.39 1.11.72-.37.27-.63.49-.92.66-.16.09-.31.18-.46.26-5.57 3.12-11.14 6.24-16.7 9.38-.97.54-1.94 1.09-2.9 1.63-.39.21-.73.33-1.08.37-.39.01-.78-.09-1.24-.35-6.56-3.76-13.16-7.47-19.75-11.19-.37-.21-.73-.46-1.22-.77.4-.3.68-.54.99-.72 6.68-3.76 13.37-7.5 20.03-11.29.38-.22.72-.33 1.06-.36.17-.01.34.02.52.07zm-45.23 52.61c6.8 4.02 13.6 8.06 20.4 12.08.56.33.84.69.85 1.38.05 8 .13 16 .19 24 0 .13-.04.27-.09.59-.45-.23-.81-.4-1.14-.59-6.55-3.87-13.09-7.77-19.65-11.63-.75-.44-1.1-.9-1.1-1.82-.03-7.71-.12-15.42-.19-23.12 0-.33.02-.66.04-1.1.26.06.5.1.69.21zm-.67-2.9c.08-7.52.19-15.03.24-22.55 0-1.04.29-1.67 1.23-2.22 6.54-3.8 13.05-7.66 19.57-11.5.33-.19.69-.36 1.16-.59.03.6.07 1.05.07 1.49-.08 7.52-.19 15.03-.24 22.55-.01 1.04-.31 1.67-1.24 2.21-6.5 3.79-12.96 7.63-19.43 11.46-.37.22-.75.43-1.28.74-.04-.69-.08-1.14-.08-1.59zm21.24 13.94c-6.56-3.76-13.15-7.46-19.73-11.18-.36-.21-.7-.47-1.24-.83.58-.33.98-.57 1.39-.8 6.59-3.7 13.2-7.38 19.77-11.12.39-.22.72-.33 1.06-.34.34.01.68.12 1.06.34 6.6 3.78 13.24 7.5 19.86 11.25.36.21.7.47 1.17.78-.49.31-.83.56-1.2.77-6.59 3.71-13.19 7.4-19.76 11.14-.43.25-.81.36-1.19.38-.37-.02-.75-.15-1.19-.39zm1.75 2.67c.01-.77.24-1.25.92-1.65 6.78-3.97 13.53-7.97 20.3-11.96.18-.1.38-.2.67-.34.05.41.13.75.13 1.08-.08 7.75-.18 15.5-.25 23.26 0 .25-.03.47-.09.67-.13.37-.37.68-.78.95-6.92 4.05-13.82 8.13-20.73 12.19-.07.04-.15.06-.35.11-.03-.42-.07-.74-.06-1.06.07-7.75.17-15.5.24-23.25zm17.42-17.77c-5.85-3.47-11.55-6.85-17.31-10.26-.08-8.4-.16-16.81-.23-25.25 1.21.47 7.74 4.19 13.41 7.54v.04l5.01 2.97c1.67 1.02 2.95 1.84 3.5 2.25.07 8.22.15 16.51.22 25.12-.41-.12-2.19-1.07-4.6-2.41zM244 135.75c.08-7.81.19-15.62.24-23.42.01-.94.44-1.38 1.17-1.81 5.95-3.47 11.88-6.96 17.81-10.45.92-.54 1.85-1.07 2.98-1.72.01.08.01.14.02.22.02.56.04.97.03 1.37-.08 7.56-.19 15.13-.24 22.69-.01.87-.26 1.41-1.04 1.88-6.66 3.89-13.3 7.82-19.94 11.74-.25.15-.53.28-.88.45-.05-.36-.15-.66-.15-.95zm22.24-38.45c-.56-.31-.97-.53-1.35-.76-6.43-3.8-12.83-7.63-19.28-11.39-.9-.53-1.28-1.09-1.29-2.17-.02-7.51-.11-15.03-.17-22.54 0-.45.03-.91.05-1.52.4.18.72.31 1 .48 6.63 3.93 13.26 7.86 19.9 11.78.62.37 1.03.72 1.03 1.56.04 7.86.12 15.71.19 23.57.02.26-.03.53-.08.99zm-21.57-11.58c6.82 3.88 13.66 7.74 20.5 11.61.21.12.39.27.77.54-.48.31-.79.54-1.12.72-6.68 3.75-13.36 7.5-20.02 11.26-.36.2-.68.32-1 .34-.31 0-.63-.09-1-.3-6.73-3.84-13.49-7.64-20.24-11.46-.25-.14-.48-.31-.85-.56.37-.28.63-.53.94-.7 6.76-3.8 13.53-7.59 20.28-11.4.31-.18.6-.28.88-.3.27 0 .54.08.86.25zm-1.39-2.59c-.01.89-.29 1.41-1.06 1.86-6.7 3.91-13.37 7.86-20.06 11.8-.22.13-.46.24-.76.38-.06-.35-.15-.64-.15-.94.08-7.8.18-15.6.26-23.41.01-.69.16-1.18.81-1.56 6.91-4.04 13.79-8.11 20.68-12.17.1-.06.23-.1.45-.18.03.51.07.88.07 1.24-.07 7.66-.18 15.32-.24 22.98zM222.5 99.04c6.55 3.88 13.1 7.77 19.66 11.64.7.41 1.04.84 1.04 1.71.04 7.77.12 15.53.19 23.29 0 .29-.02.58-.03.84-.09.06-.13.09-.17.11-.01 0-.02.01-.03.01-.25-.11-.51-.22-.75-.36-6.97-4.13-13.94-8.26-20.93-12.41-.08-8.43-.15-16.79-.23-25.46.55.26.91.43 1.25.63zm-.5 26.28c6.61 3.78 13.25 7.51 19.87 11.25.33.19.64.42 1.22.79-.65.37-1.06.62-1.47.85-6.56 3.68-13.11 7.36-19.66 11.05-.41.23-.78.39-1.18.41-.25-.02-.52-.1-.82-.27-6.78-3.88-13.58-7.7-20.38-11.55-.25-.14-.48-.32-.84-.57.37-.28.64-.54.96-.72 6.68-3.76 13.37-7.49 20.03-11.29.41-.23.77-.34 1.13-.35.36.05.73.17 1.14.4zm-43.24 79.41c-1.44-.89-2.55-1.6-3.11-2.01-.07-8.32-.15-16.71-.23-25.45 7.48 4.44 14.65 8.69 21.91 12.99.08 8.4.16 16.81.23 25.24-.97-.37-5.31-2.8-9.92-5.48V210c-2.97-1.76-5.92-3.51-8.88-5.27zm-3.33-29.98c.08-7.52.2-15.03.23-22.55 0-1.12.36-1.74 1.32-2.3.59-.34 1.17-.69 1.76-1.03 6-3.5 11.98-7.04 17.96-10.56.25-.15.54-.26.9-.43.05.45.1.8.1 1.15-.09 7.71-.18 15.42-.25 23.13-.01.81-.2 1.34-.95 1.78-6.71 3.91-13.38 7.87-20.07 11.81-.25.15-.53.27-.96.48-.02-.64-.05-1.06-.04-1.48zm21.38 14.05c-6.56-3.77-13.16-7.46-19.75-11.19-.37-.21-.73-.46-1.23-.78.4-.29.68-.54.99-.72 6.68-3.76 13.37-7.5 20.04-11.29.38-.22.72-.34 1.06-.36.33.01.67.1 1.06.33 6.65 3.81 13.33 7.56 20 11.33.33.19.64.41 1.22.79-.66.38-1.07.62-1.48.86-6.51 3.65-13.04 7.29-19.53 10.98-.43.24-.81.38-1.19.4-.37.01-.75-.1-1.19-.35zm1.61 2.65c.01-.8.18-1.34.94-1.78 6.74-3.94 13.45-7.92 20.17-11.88.22-.13.47-.24.8-.4.04.48.1.87.1 1.26-.08 7.65-.18 15.31-.25 22.97-.01.8-.17 1.35-.93 1.79-6.79 3.96-13.55 7.96-20.31 11.94-.18.11-.39.19-.72.35-.03-.54-.06-.91-.05-1.27.08-7.67.18-15.33.25-22.98zm22-15.21c-.39-.18-.7-.32-.99-.48-6.64-3.93-13.27-7.88-19.92-11.79-.71-.42-1-.88-1.01-1.72-.04-7.76-.13-15.53-.19-23.29 0-.31.04-.63.07-1.06.34.15.62.27.86.41 6.68 3.96 13.35 7.93 20.04 11.87.71.42 1.01.88 1.01 1.72.04 7.76.13 15.52.2 23.29.01.29-.03.61-.07 1.05zm-22.04-40.83c.08-7.61.18-15.21.24-22.82.01-.86.2-1.42 1-1.9 6.65-3.88 13.28-7.82 19.92-11.74.29-.17.61-.31 1.03-.52.03.57.07 1.03.06 1.48-.08 7.51-.19 15.02-.23 22.53-.01 1.06-.34 1.66-1.26 2.19-6.49 3.78-12.95 7.62-19.42 11.43-.37.22-.75.44-1.26.73-.03-.57-.08-.98-.08-1.38zm.36-51.05c-.08-8.5-.15-16.89-.23-25.22.14-.08.18-.11.22-.12h.02c.25.12.51.23.75.37 6.96 4.13 13.93 8.26 20.93 12.41.08 8.44.15 16.83.23 25.55-7.45-4.41-14.64-8.67-21.92-12.99zm.25 1.31c6.82 3.9 13.66 7.74 20.49 11.61.2.12.39.27.71.5-.37.27-.64.52-.95.69-6.72 3.78-13.44 7.56-20.15 11.35-.33.19-.63.31-.94.35-.29.01-.59-.06-.93-.25-6.82-3.9-13.66-7.74-20.49-11.61-.19-.11-.37-.26-.74-.52.32-.23.55-.43.8-.57.08-.05.16-.09.24-.14 1.17-.66 2.33-1.31 3.5-1.97 5.54-3.1 11.07-6.21 16.6-9.32.33-.19.63-.32.94-.36.28-.01.58.05.92.24zm-1.34-2.5c-.01.86-.23 1.42-1.02 1.88-6.66 3.89-13.29 7.83-19.94 11.75-.25.15-.54.28-.88.45-.08-.3-.19-.54-.18-.78.08-7.91.19-15.81.25-23.72 0-.23.03-.42.09-.59.17-.5.57-.79 1.06-1.07 5.31-3.11 10.61-6.23 15.92-9.34 1.55-.91 3.12-1.8 4.87-2.81.04.52.08.89.08 1.24-.09 7.66-.19 15.33-.25 22.99zm-21.23 15.59c6.76 4 13.52 8.01 20.28 12.01.55.33.86.68.86 1.37.05 8 .12 16 .19 24.01 0 .13-.04.27-.09.6-.45-.22-.81-.39-1.13-.58-6.55-3.88-13.09-7.77-19.66-11.63-.76-.44-1.1-.91-1.11-1.82-.03-7.71-.12-15.42-.19-23.13 0-.33.02-.66.04-1.12.31.09.59.16.81.29zm-.14 26.56c6.64 3.8 13.32 7.55 19.98 11.32.33.18.63.4 1.08.7-.43.29-.72.53-1.04.71-6.72 3.78-13.44 7.54-20.15 11.34-.35.2-.66.3-.98.32-.28-.01-.57-.09-.89-.27-6.73-3.84-13.49-7.65-20.24-11.46-.27-.15-.53-.35-.95-.64.39-.27.69-.5 1.01-.69.14-.08.28-.16.41-.23 6.16-3.46 12.33-6.9 18.47-10.38.4-.22.8-.45 1.19-.67.37-.21.7-.33 1.04-.35.34-.02.68.07 1.07.3zm-38.08 56.89c2.85 1.69 5.71 3.38 8.57 5.06 2.02 1.22 3.66 2.23 4.52 2.81.19.21.33.45.42.72.08 8.18.15 16.43.23 25.03-.18-.1-.34-.17-.5-.25-7.14-4.23-14.01-8.31-20.91-12.39-.3-.28-.48-.59-.57-.99-.07-8.16-.15-16.27-.22-24.41 0-.09.01-.17.01-.26.89.37 4.44 2.36 8.45 4.68zm-8.4-7.07c.08-7.75.18-15.5.25-23.26 0-.69.13-1.18.79-1.57 6.9-4.04 13.79-8.12 20.68-12.18.01-.01.02-.01.03-.02.1-.05.22-.09.44-.17.03.49.07.86.07 1.22-.09 7.7-.19 15.41-.25 23.11-.01.77-.23 1.25-.92 1.65-6.82 3.99-13.62 8.02-20.43 12.03-.14.08-.31.15-.54.26-.05-.4-.12-.74-.12-1.07zm21.62 13.78c-6.82-3.9-13.67-7.75-20.51-11.62-.21-.12-.4-.27-.75-.5.35-.28.61-.54.92-.71 6.72-3.79 13.45-7.56 20.17-11.35.11-.06.22-.11.33-.16.4-.16.77-.2 1.18-.09.12.04.24.08.37.15 6.78 3.87 13.59 7.7 20.38 11.54.28.16.52.39.89.66-.49.31-.83.56-1.19.77-6.64 3.74-13.29 7.46-19.91 11.2-.35.2-.67.33-1 .35-.27 0-.55-.05-.88-.24zm1.36 2.33c0-.13.03-.23.05-.35.13-.48.4-.85.84-1.17.08-.05.16-.11.25-.16 5.31-3.1 10.61-6.23 15.92-9.34 1.55-.91 3.11-1.8 4.89-2.82l.03.14c.02.55.05.97.05 1.38-.09 7.51-.19 15.03-.24 22.54-.01 1.06-.35 1.66-1.26 2.2-6.5 3.78-12.96 7.63-19.43 11.45-.32.19-.66.38-1.06.61-.02.01-.05.02-.08.03-.09-.37-.19-.66-.19-.94.06-7.86.17-15.71.23-23.57zm21.96-15c-.36-.19-.71-.4-1.07-.6-7.03-4.17-13.89-8.23-20.77-12.31-.08-8.44-.15-16.8-.23-25.37.08.03.15.05.22.07.3.11.56.21.77.34 6.68 3.95 13.36 7.92 20.04 11.86.62.36.9.75.9 1.49.05 7.91.13 15.82.2 23.73.01.17-.02.36-.06.79zm-22.05-41.04c.08-7.51.19-15.02.24-22.53 0-1.05.33-1.66 1.25-2.2 6.45-3.76 12.86-7.57 19.29-11.36.22-.13.43-.25.67-.39.2-.11.43-.21.72-.36.04.55.09.94.09 1.33-.08 7.61-.18 15.21-.25 22.82-.01.85-.17 1.43-.98 1.91-6.74 3.93-13.46 7.91-20.19 11.87-.21.13-.45.22-.81.38-.01-.63-.03-1.05-.03-1.47zm14.47-42.43c-3.54-2.1-7.09-4.2-10.64-6.3-1.43-.88-2.57-1.6-3.24-2.06-.1-.13-.18-.26-.23-.43-.08-8.21-.15-16.5-.23-24.8.01-.04.01-.07.02-.13.81.32 3.72 1.93 7.19 3.91 4.12 2.44 8.21 4.87 12.32 7.3 1.09.68 1.95 1.23 2.44 1.59.08 8.35.15 16.77.23 25.21-.82-.31-4.08-2.11-7.86-4.29zm-13.48-6.88c6.52 3.73 13.08 7.41 19.62 11.11.41.23.8.5 1.36.85-.5.34-.84.6-1.2.8-6.64 3.73-13.29 7.45-19.92 11.2-.29.16-.55.26-.81.31-.23.03-.46.02-.69-.03-.16-.05-.32-.11-.49-.21-6.74-3.85-13.5-7.65-20.25-11.47-.26-.15-.5-.35-.91-.64.35-.26.61-.48.9-.65.08-.05.16-.09.24-.14 6.59-3.71 13.2-7.4 19.78-11.15.22-.12.43-.21.63-.28l.12-.03c.13-.03.25-.05.37-.06.39.02.79.13 1.25.39zm-1.72-2.77c-.01.88-.26 1.42-1.04 1.87-6.66 3.89-13.3 7.82-19.94 11.74-.25.15-.54.28-.9.46-.06-.43-.14-.77-.13-1.11.08-7.71.18-15.42.25-23.13.01-.63.14-1.09.51-1.48.02-.02.03-.03.04-.05.11-.1.24-.2.39-.29.05-.03.08-.06.13-.09 6.69-3.91 13.36-7.86 20.04-11.8.18-.1.39-.19.67-.32.05-.02.11-.05.17-.07.03.54.07.91.06 1.27-.08 7.68-.19 15.34-.25 23zm-17.26 17.99c5.45 3.23 10.81 6.41 16.21 9.61.4.26.72.47.94.63.08 8.38.15 16.77.23 25.16-.82-.31-4.08-2.12-7.86-4.29-3.64-2.16-7.26-4.3-10.88-6.44-1.47-.91-2.61-1.64-3.18-2.05-.07-8.23-.15-16.53-.23-25.15.42.12 2.28 1.12 4.77 2.53zm-4.17 24.11c6.69 3.83 13.41 7.6 20.11 11.39.29.17.56.36.98.63-.34.26-.56.48-.83.63-6.8 3.83-13.61 7.65-20.4 11.49-.13.07-.25.12-.37.17-.39.1-.76.08-1.15-.05-.07-.03-.14-.05-.22-.1-6.82-3.88-13.66-7.74-20.5-11.61-.19-.11-.37-.25-.74-.52.32-.23.54-.42.78-.57.13-.07.25-.15.37-.21 6.66-3.74 13.33-7.48 19.99-11.23.33-.18.63-.29.93-.32.33 0 .67.08 1.05.3zM85.32 178c6.56 3.88 13.1 7.77 19.66 11.64.69.4 1.05.82 1.06 1.7.03 7.76.12 15.52.19 23.28 0 .31-.04.62-.09 1.14-7.16-4.24-14.15-8.38-21.18-12.55-.33-.29-.54-.62-.64-1.05-.07-8.16-.15-16.27-.22-24.59 0-.06 0-.12.01-.19.52.26.88.42 1.21.62zm-1.21-3.43c.08-7.46.19-14.92.23-22.38.01-1.04.31-1.66 1.23-2.21 4.59-2.67 9.16-5.37 13.73-8.08 1.99-1.18 3.98-2.35 5.97-3.53.14-.08.28-.16.43-.25.14-.08.3-.14.54-.25.06.47.12.81.11 1.15-.08 7.7-.18 15.41-.25 23.11-.01.82-.22 1.33-.97 1.77-6.74 3.94-13.46 7.91-20.18 11.87-.22.13-.46.23-.83.4.01-.67-.01-1.13-.01-1.6zm22.05 14.54c-.15-.05-.29-.1-.45-.2-6.73-3.84-13.49-7.64-20.24-11.46-.27-.15-.52-.34-.96-.64.41-.28.72-.52 1.05-.71l.36-.21c6.55-3.68 13.11-7.34 19.65-11.04.38-.21.72-.34 1.06-.37.33 0 .67.09 1.07.31 6.64 3.81 13.32 7.55 19.98 11.32.33.19.63.41 1.08.7-.42.29-.71.52-1.03.7-6.72 3.78-13.44 7.55-20.15 11.34-.26.15-.5.23-.74.28-.22.04-.44.03-.68-.02zm.94 2.48c.01-.82.19-1.38.77-1.85.08-.06.17-.13.27-.19.04-.03.07-.05.12-.08 6.67-3.88 13.3-7.82 19.95-11.73.12-.07.25-.13.39-.2.11-.05.23-.1.38-.17.07.36.15.66.15.94-.08 7.81-.18 15.62-.25 23.43-.01.76-.22 1.24-.91 1.65-6.78 3.97-13.55 7.97-20.32 11.97-.18.1-.38.19-.73.35-.03-.61-.06-1.02-.06-1.43.07-7.56.18-15.12.24-22.69zm21.99-15.31c-.56-.31-.96-.53-1.34-.75-6.43-3.81-12.83-7.63-19.28-11.39-.91-.53-1.29-1.1-1.29-2.17-.02-7.52-.11-15.02-.18-22.54 0-.46.03-.92.05-1.53.4.18.72.31 1 .47 6.63 3.93 13.26 7.87 19.91 11.78.7.41 1.03.85 1.04 1.71.03 7.76.12 15.52.19 23.27-.01.31-.06.62-.1 1.15zm-22.04-40.67c.08-7.71.18-15.42.25-23.13 0-.37.05-.69.16-.97.03-.07.07-.14.12-.2.03-.04.05-.08.09-.13.06-.08.12-.15.2-.22.11-.1.21-.19.36-.28 6.74-3.93 13.46-7.91 20.19-11.87.15-.08.33-.17.52-.27.09-.04.19-.08.31-.13.01.04.02.08.03.13.02.54.04.94.04 1.32-.09 7.56-.19 15.13-.25 22.69-.01.92-.21 1.51-1.06 2.01-6.62 3.86-13.21 7.78-19.81 11.67-.29.17-.61.32-1.01.52-.06-.45-.14-.79-.14-1.14zm21.09-38.98c-7.05-4.17-13.87-8.22-20.72-12.28-.07-8.39-.15-16.73-.23-25.41.34.14.6.24.84.35 7.05 4.18 13.87 8.22 20.7 12.27.18.16.3.34.38.56.07 8.33.15 16.6.23 25.18-.41-.22-.8-.45-1.2-.67zm-20.1-10.76c6.52 3.74 13.08 7.42 19.62 11.12.38.21.74.45 1.23.76-.32.27-.54.51-.81.66-6.8 3.84-13.62 7.65-20.42 11.49-.1.06-.2.1-.3.14-.44.12-.86.1-1.32-.06-6.95-3.96-13.92-7.9-20.88-11.84-.12-.07-.22-.17-.47-.37.2-.17.38-.31.54-.43.13-.09.25-.18.38-.25 6.3-3.54 12.61-7.07 18.89-10.64.34-.19.68-.38 1.02-.58.23-.13.44-.22.64-.29.03-.01.06-.02.09-.02.13-.04.26-.05.39-.06.46-.04.9.08 1.4.37zm-1.71-2.55c-.01.69-.17 1.17-.82 1.55-6.9 4.04-13.79 8.11-20.69 12.18-.1.06-.23.09-.45.17-.03-.52-.06-.89-.06-1.25.09-7.66.19-15.32.26-22.97.01-.81.2-1.34.95-1.78 6.74-3.94 13.45-7.92 20.18-11.88.21-.12.46-.23.75-.38.06.35.15.65.14.95-.09 7.8-.19 15.61-.26 23.41zM84.34 98.3c7.37 4.37 14.58 8.64 21.87 12.96l.24 25.43c-.34-.11-.62-.18-.85-.31-6.77-4-13.53-8.02-20.29-12.02-.55-.32-.85-.67-.86-1.37-.04-8.01-.12-16.02-.19-24.02 0-.13.03-.28.08-.67zm.74 27.07c6.57 3.76 13.17 7.46 19.75 11.19.37.21.72.46 1.21.78-.42.3-.69.55-1.01.73-6.72 3.78-13.46 7.55-20.18 11.34-.15.08-.29.15-.43.21-.38.1-.74.09-1.13-.03-.06-.03-.12-.04-.18-.07-2.75-1.57-5.5-3.12-8.25-4.68v.03c-3.97-2.25-7.94-4.49-11.91-6.73-.37-.21-.73-.46-1.22-.77.4-.3.68-.54.99-.72 4.05-2.28 8.09-4.55 12.14-6.83 2.61-1.47 5.23-2.94 7.83-4.42.43-.25.81-.37 1.19-.39.38 0 .76.12 1.2.36zm-45.83 52.31c6.8 4.02 13.6 8.06 20.4 12.08.56.33.84.69.85 1.38.05 8 .13 16 .19 24 0 .14-.04.29-.1.66-.52-.27-.91-.44-1.28-.66-6.55-3.87-13.09-7.77-19.65-11.63-.75-.44-1.09-.9-1.1-1.82-.03-7.71-.12-15.42-.19-23.12 0-.34.03-.68.05-1.14.32.09.6.12.83.25zm-.82-2.9c.08-7.52.19-15.03.24-22.55.01-1.04.29-1.67 1.23-2.22 6.54-3.8 13.05-7.66 19.57-11.5.36-.21.75-.38 1.3-.66.03.63.08 1.1.07 1.56-.08 7.52-.19 15.03-.24 22.55-.01 1.04-.31 1.67-1.24 2.21-6.5 3.79-12.96 7.63-19.43 11.46-.4.24-.81.46-1.42.82-.04-.74-.08-1.2-.08-1.67zm21.25 13.94c-6.56-3.76-13.15-7.46-19.73-11.18-.36-.21-.7-.47-1.24-.83.58-.33.98-.57 1.39-.8 6.59-3.7 13.2-7.38 19.77-11.12.83-.47 1.44-.48 2.27 0 4.18 2.4 8.38 4.77 12.57 7.13v.02c2.5 1.42 5.01 2.83 7.52 4.25.24.14.46.32.92.63l-.09.06c-.54.31-.91.52-1.27.72-2.36 1.33-4.72 2.66-7.09 3.99v.07c-4.17 2.34-8.34 4.69-12.5 7.06-.91.53-1.61.52-2.52 0zm1.74 2.67c.01-.77.24-1.25.92-1.65 4.18-2.45 8.35-4.91 12.52-7.37v.01c2.39-1.41 4.79-2.83 7.19-4.24.21-.13.43-.25.67-.39.18-.1.39-.2.7-.35.03.59.07.99.07 1.39-.08 7.61-.19 15.22-.25 22.82 0 .88-.24 1.42-1.03 1.88-2.5 1.46-5 2.93-7.49 4.41v.07c-4.33 2.55-8.66 5.09-12.98 7.64-.08.05-.19.06-.49.15-.03-.45-.07-.77-.07-1.1.08-7.77.17-15.52.24-23.27zm14.1-19.75c-4.69-2.78-9.33-5.53-13.98-8.29-.08-8.42-.16-16.85-.23-25.3.66.13 7.47 4 13.41 7.5v.13c2.56 1.51 5.11 3.03 7.68 4.55.37.24.66.44.88.59.08 8.38.15 16.76.23 25.16-.83-.3-4.15-2.13-7.99-4.34zm-14.2-35.89c.08-7.81.19-15.62.24-23.42.01-.94.44-1.38 1.17-1.81 5.95-3.47 11.88-6.96 17.81-10.45.86-.51 1.75-1.01 2.8-1.62.06-.03.12-.05.18-.09.04.49.11.89.1 1.28-.08 7.66-.18 15.32-.25 22.98-.01.79-.15 1.35-.92 1.8-2.59 1.51-5.17 3.04-7.75 4.56v.07c-4.07 2.4-8.14 4.8-12.2 7.19-.29.17-.6.31-1.02.52-.06-.39-.17-.7-.16-1.01zm.8-50.03c4.19 2.39 8.39 4.75 12.59 7.13v.05c2.54 1.44 5.08 2.88 7.62 4.31.29.16.54.36 1.04.68 0 0-.01 0-.01.01-.62.36-1 .58-1.37.79-2.43 1.36-4.85 2.73-7.27 4.09v.07c-4.15 2.33-8.31 4.66-12.46 7.01-.75.43-1.35.49-2.14.04-6.73-3.84-13.49-7.64-20.24-11.46-.25-.14-.48-.31-.85-.56.37-.28.63-.53.94-.7 6.76-3.8 13.53-7.59 20.28-11.4.65-.38 1.18-.45 1.87-.06zm-1.38-2.59c-.01.89-.29 1.41-1.06 1.86-6.7 3.91-13.37 7.86-20.06 11.8-.25.15-.52.26-.89.44-.06-.38-.17-.69-.17-1 .08-7.8.18-15.6.26-23.41.01-.69.16-1.18.81-1.56 6.91-4.04 13.79-8.11 20.68-12.17.12-.07.27-.1.6-.23.03.54.07.92.07 1.3-.08 7.65-.18 15.31-.24 22.97zM39.95 99.04c6.55 3.88 13.1 7.77 19.66 11.64.7.41 1.04.84 1.04 1.71.04 7.77.12 15.53.19 23.29 0 .29-.02.58-.03.84-.08.06-.12.09-.17.11-.04.02-.1.05-.13.03-.27-.12-.54-.23-.79-.38-6.97-4.13-13.94-8.26-20.93-12.41-.08-8.46-.16-16.84-.23-25.53.64.31 1.03.48 1.39.7zm-.5 26.28c6.61 3.78 13.25 7.51 19.87 11.25.33.19.64.42 1.22.79-.65.37-1.06.62-1.47.85-6.56 3.68-13.11 7.36-19.66 11.05-.73.41-1.31.61-2.15.14-6.78-3.88-13.58-7.7-20.38-11.55-.25-.14-.48-.32-.84-.57.37-.28.64-.54.96-.72 6.67-3.76 13.37-7.49 20.03-11.29.9-.48 1.56-.44 2.42.05zm-23.72 66.13c.01-.8.18-1.34.94-1.78 6.74-3.94 13.45-7.92 20.17-11.88.25-.15.52-.26.94-.47.04.51.11.92.1 1.33-.08 7.65-.18 15.31-.25 22.97-.01.8-.17 1.35-.93 1.79-6.79 3.96-13.55 7.96-20.31 11.94-.21.12-.43.21-.86.41-.03-.59-.06-.96-.06-1.34.1-7.66.2-15.32.26-22.97zm-1.61-2.65c-6.56-3.77-13.16-7.46-19.75-11.19-.37-.21-.73-.46-1.23-.78.4-.29.68-.54.99-.72 6.68-3.76 13.37-7.5 20.04-11.29.81-.46 1.43-.52 2.28-.03 6.65 3.81 13.33 7.56 20 11.33.33.19.64.41 1.22.79-.66.38-1.07.62-1.48.86-6.51 3.65-13.04 7.29-19.53 10.98-.91.52-1.6.59-2.54.05zm23.76-12.5c-.46-.22-.81-.36-1.13-.55-6.64-3.93-13.27-7.88-19.92-11.79-.71-.42-1-.88-1.01-1.72-.04-7.76-.13-15.53-.19-23.29 0-.32.04-.65.08-1.13.42.2.72.31 1 .47 6.68 3.96 13.35 7.93 20.04 11.87.71.42 1.01.88 1.01 1.72.04 7.76.13 15.52.2 23.29 0 .33-.05.65-.08 1.13zm-22.19-40.89c.08-7.61.18-15.21.24-22.82.01-.86.2-1.42 1-1.9 6.65-3.88 13.28-7.82 19.92-11.74.32-.19.67-.33 1.17-.59.03.61.07 1.08.06 1.55-.08 7.51-.19 15.02-.23 22.53-.01 1.06-.34 1.66-1.26 2.19-6.49 3.78-12.95 7.62-19.42 11.43-.4.24-.82.47-1.4.81-.03-.62-.08-1.04-.08-1.46zm.36-51.05c-.08-8.5-.15-16.89-.23-25.22.14-.08.18-.11.22-.12.04-.02.1-.04.13-.02.26.13.53.24.78.39 6.96 4.13 13.93 8.26 20.93 12.41.08 8.47.15 16.89.23 25.64-7.49-4.45-14.73-8.73-22.06-13.08zm.4 1.31c6.82 3.9 13.66 7.74 20.49 11.61.2.12.39.27.71.5-.37.27-.64.52-.95.69-6.72 3.78-13.44 7.56-20.15 11.35-.69.39-1.25.54-2.02.1-6.82-3.9-13.66-7.74-20.49-11.61-.2-.12-.39-.28-.82-.59.57-.33.94-.55 1.31-.76 6.64-3.72 13.28-7.44 19.91-11.18.67-.38 1.23-.55 2.01-.11zm-2.61 50.49c-6.55-3.88-13.09-7.77-19.66-11.63-.76-.44-1.1-.91-1.11-1.82-.03-7.71-.12-15.42-.19-23.13 0-.34.02-.68.04-1.17.37.13.69.18.95.34 6.76 4 13.52 8.01 20.28 12.01.55.33.86.68.86 1.37.05 8 .12 16 .19 24.01 0 .14-.04.28-.1.67-.51-.27-.9-.44-1.26-.65zM-7.03 152.2c0-1.12.37-1.75 1.33-2.31 6.59-3.83 13.14-7.72 19.7-11.58.28-.17.6-.28 1.04-.49.05.48.11.85.11 1.21-.09 7.71-.18 15.42-.25 23.13-.01.81-.2 1.34-.95 1.78-6.71 3.91-13.38 7.87-20.07 11.81-.28.17-.59.3-1.1.55-.02-.69-.05-1.12-.04-1.55.08-7.52.2-15.03.23-22.55zm-.01 50.53c-.07-8.35-.15-16.77-.23-25.54 7.53 4.47 14.75 8.75 22.06 13.08l.24 25.28c-1.11-.19-19.15-10.7-22.07-12.82zm-.36 51.14c.08-7.6.19-15.21.25-22.82.01-.87.22-1.42 1.01-1.88 6.65-3.89 13.28-7.82 19.92-11.74.32-.19.66-.33 1.14-.56.03.56.09.98.08 1.4-.08 7.56-.2 15.12-.24 22.68 0 1.06-.36 1.66-1.27 2.19C7.04 246.9.62 250.71-5.8 254.5c-.45.26-.9.52-1.52.87-.04-.66-.09-1.08-.08-1.5zm43.73 2.63c-6.72 3.79-13.45 7.55-20.17 11.34-.65.37-1.18.5-1.88.1-6.87-3.91-13.76-7.8-20.64-11.69-.2-.11-.37-.27-.72-.53.47-.31.74-.51 1.03-.68 6.6-3.71 13.21-7.4 19.78-11.15 1.01-.58 1.77-.6 2.8-.01 6.47 3.72 12.99 7.37 19.49 11.05.41.23.8.5 1.36.84-.45.31-.73.55-1.05.73zM15.7 242.34c-.08-8.43-.15-16.85-.23-25.31 1.27.31 18.41 10.3 22.06 12.82.08 8.34.15 16.77.24 25.56-7.55-4.46-14.76-8.74-22.07-13.07zm21.4-13.91c-6.78-3.87-13.58-7.69-20.37-11.53-.24-.14-.46-.32-.83-.58.44-.3.77-.56 1.13-.76 6.68-3.75 13.36-7.5 20.03-11.26.69-.39 1.25-.52 2.01-.08 6.77 3.87 13.58 7.69 20.37 11.54.25.14.47.31.93.64-.55.32-.89.51-1.23.7-6.68 3.75-13.36 7.49-20.03 11.26-.69.39-1.25.5-2.01.07zm1.12 25.63c.08-7.71.18-15.42.25-23.13.01-.79.16-1.35.92-1.8 6.79-3.97 13.55-7.97 20.32-11.96.2-.12.43-.19.85-.36.03.58.06.97.06 1.35-.08 7.67-.18 15.32-.25 22.99-.01.79-.17 1.34-.93 1.79-6.75 3.94-13.47 7.92-20.2 11.89-.24.14-.51.25-.9.44-.04-.49-.12-.85-.12-1.21zm43.4 2.66c-2.3 1.29-4.61 2.58-6.91 3.88v.07c-4.22 2.37-8.45 4.74-12.66 7.12-.86.49-1.51.54-2.4.02-6.6-3.79-13.25-7.51-19.87-11.26-.34-.19-.66-.41-1.1-.7.3-.26.51-.5.78-.65 6.8-3.83 13.62-7.66 20.42-11.5.6-.34 1.11-.46 1.76-.09 4.36 2.48 8.72 4.95 13.08 7.42v.03c2.36 1.33 4.72 2.67 7.07 4 .36.21.69.46 1.24.84-.6.35-1 .59-1.41.82zm1.65-1.54c-.18-.06-.34-.11-.49-.16-2.66-1.57-5.3-3.14-7.92-4.69v.05c-4.23-2.51-8.46-5.02-12.7-7.52-.55-.32-.85-.67-.86-1.37-.05-8.01-.12-16.01-.19-24.02 0-.14.04-.29.06-.43.64.09 7.51 3.98 13.54 7.55v.16c2.47 1.46 4.94 2.93 7.42 4.39.71.41 1.01.87 1.02 1.72.04 7.76.13 15.53.19 23.29 0 .28-.03.57-.07 1.03zm.36-26.6h-.1c-.15-.01-.3-.05-.45-.09-.22-.07-.44-.17-.69-.31-2.51-1.45-5.03-2.87-7.54-4.29v.04c-3.95-2.24-7.9-4.47-11.85-6.71-.46-.26-.91-.52-1.52-.88.43-.32.71-.58 1.02-.76 4.12-2.32 8.24-4.63 12.35-6.95 2.56-1.44 5.13-2.88 7.69-4.34l.18-.09c.07-.04.13-.06.2-.09.45-.18.87-.21 1.33-.09.15.06.31.11.48.21 6.69 3.83 13.42 7.61 20.13 11.4.28.16.55.37 1.04.72-1.22.7-2.22 1.29-3.24 1.87-5.87 3.3-11.76 6.57-17.61 9.91-.52.29-.96.44-1.42.45zm.33 25.72c.08-7.86.19-15.71.24-23.57 0-.13.03-.22.05-.33.14-.51.44-.88.9-1.21.06-.04.12-.08.19-.12 5.31-3.1 10.61-6.23 15.92-9.34 1.55-.91 3.13-1.8 4.88-2.81.04.46.09.77.09 1.08-.09 7.76-.19 15.52-.25 23.28-.01.84-.29 1.32-1.02 1.74-6.7 3.92-13.38 7.88-20.06 11.83-.22.13-.46.24-.77.38-.07-.35-.18-.65-.17-.93zm43.58 2.15c-6.72 3.78-13.44 7.55-20.15 11.34-.35.2-.66.31-.99.33-.28-.01-.56-.07-.88-.26-6.77-3.87-13.58-7.7-20.36-11.54-.25-.14-.47-.32-.94-.64.67-.38 1.13-.66 1.59-.92 6.07-3.4 12.14-6.8 18.19-10.23.45-.25.9-.5 1.35-.76.19-.11.38-.19.55-.25.02-.01.05-.02.07-.02.13-.04.25-.05.38-.06.39-.01.78.08 1.23.34 6.55 3.76 13.15 7.46 19.73 11.18.37.21.72.46 1.23.78-.4.29-.68.53-1 .71zm.42-1.74c-6.63-3.93-13.26-7.86-19.9-11.77-.7-.42-1.02-.86-1.02-1.71-.04-7.71-.12-15.42-.19-23.12 0-.34.04-.69.08-1.22.22.11.41.21.59.3 6.98 4.14 13.81 8.18 20.68 12.26.27.24.44.51.55.83.08 8.26.15 16.5.23 24.99-.48-.27-.76-.41-1.02-.56zm1.46-26.03c-.33-.01-.67-.1-1.06-.33-6.65-3.81-13.33-7.56-20-11.33-.32-.18-.63-.41-1.05-.69.11-.09.2-.18.29-.26.23-.18.45-.35.67-.47 5.55-3.12 11.1-6.24 16.64-9.38 1.15-.65 2.3-1.29 3.45-1.94.16-.09.32-.16.47-.22l.06-.03c.15-.05.29-.07.43-.08.35-.01.7.09 1.11.32 6.65 3.81 13.33 7.56 20 11.33.31.18.61.4 1.14.75.02.02.04.03.06.05-.61.35-.98.57-1.35.78-6.6 3.7-13.2 7.39-19.79 11.13-.39.23-.73.35-1.07.37zm.17 25.04c.09-7.56.19-15.12.25-22.68 0-.52.06-.94.29-1.3l.06-.09c.06-.08.13-.15.21-.23.11-.1.23-.2.39-.29.01 0 .01-.01.02-.01 6.7-3.91 13.37-7.87 20.05-11.8.05-.03.11-.06.16-.09.22-.11.45-.22.72-.35.05.43.11.78.11 1.12-.08 7.7-.19 15.41-.25 23.11-.01.81-.21 1.33-.96 1.77-6.74 3.94-13.46 7.91-20.18 11.87-.22.13-.46.23-.82.4-.02-.6-.05-1.02-.05-1.43zm44.47 2.31c-.45.26-.81.47-1.16.66-6.55 3.68-13.11 7.34-19.64 11.06-.47.27-.89.37-1.3.35-.34-.04-.69-.15-1.08-.37-6.56-3.76-13.15-7.46-19.73-11.18-.36-.21-.7-.47-1.16-.78.5-.31.85-.56 1.22-.77 5.51-3.1 11.02-6.19 16.53-9.29 1.13-.63 2.26-1.26 3.38-1.9.07-.04.13-.06.19-.09.11-.05.22-.11.33-.15.06-.02.12-.03.18-.05.1-.02.21-.04.31-.05.35.01.7.12 1.1.34 6.6 3.78 13.24 7.51 19.86 11.25.36.2.69.46 1.2.8-.09.07-.16.12-.23.17zm.55-.89c-.3-.09-.57-.15-.79-.28-6.76-4-13.52-8.01-20.28-12.01-.55-.33-.86-.68-.86-1.37-.05-8-.13-16-.19-24 0-.13.04-.27.09-.6.44.22.8.39 1.13.58 6.55 3.88 13.1 7.77 19.65 11.64.3.18.55.35.74.57.03.03.06.06.08.1.18.25.29.55.29.99.03 7.85.12 15.71.19 23.57 0 .22-.03.45-.05.81zm.32-26.56c-.38-.03-.77-.15-1.21-.41-6.51-3.74-13.06-7.42-19.6-11.12-.37-.21-.72-.46-1.23-.78.37-.26.61-.47.88-.62 6.8-3.82 13.61-7.64 20.41-11.47.12-.07.23-.12.35-.16.32-.12.62-.13.94-.05.11.04.21.07.32.13 6.91 3.93 13.83 7.84 20.74 11.76.16.09.29.23.64.51-.6.35-1.02.59-1.44.83-6.5 3.66-13.02 7.29-19.5 11-.48.26-.89.38-1.3.38zm.44 26.67c-.04-.58-.09-.98-.08-1.38.08-7.6.19-15.21.25-22.82.01-.87.22-1.42 1.01-1.88 6.65-3.89 13.28-7.82 19.92-11.74.28-.17.6-.31 1-.5.03.52.08.93.08 1.33-.08 7.56-.2 15.12-.24 22.68 0 1.06-.36 1.66-1.27 2.19-6.45 3.76-12.87 7.57-19.29 11.36-.37.22-.75.44-1.22.7-.05.02-.11.04-.16.06zm43.5 1.25c-6.72 3.79-13.45 7.55-20.17 11.34-.31.18-.6.3-.89.33-.27 0-.54-.05-.85-.23-6.87-3.91-13.76-7.8-20.64-11.69-.19-.1-.35-.25-.66-.48.29-.23.52-.45.78-.61.06-.04.13-.08.19-.11 6.6-3.71 13.21-7.4 19.78-11.15.48-.27.9-.41 1.32-.43.42.01.84.14 1.33.42 6.47 3.72 12.99 7.37 19.49 11.05.41.23.8.5 1.36.84-.44.3-.72.54-1.04.72zm-20.48-14.16c-.08-8.41-.15-16.82-.23-25.26 2.08.82 18.37 10.32 21.91 12.77.08 8.32.15 16.72.23 25.48-7.48-4.44-14.65-8.69-21.91-12.99zm22.33-13.64c-.29 0-.59-.07-.93-.26-6.78-3.87-13.58-7.69-20.37-11.53-.24-.14-.46-.32-.83-.58.44-.3.77-.56 1.13-.76 6.68-3.75 13.36-7.5 20.03-11.26.33-.19.63-.31.94-.34.29 0 .59.07.93.26 6.77 3.87 13.58 7.69 20.37 11.54.25.14.47.31.93.64-.55.32-.89.51-1.23.7-6.68 3.75-13.36 7.49-20.03 11.26-.34.18-.64.29-.94.33zm.19 25.36c.08-7.71.18-15.42.25-23.13.01-.79.16-1.35.92-1.8 6.79-3.97 13.55-7.97 20.32-11.96.18-.1.38-.17.71-.3.03.55.06.92.06 1.29-.08 7.67-.18 15.32-.25 22.99-.01.79-.17 1.34-.93 1.79-6.75 3.94-13.47 7.92-20.2 11.89-.21.12-.45.23-.76.38-.05-.46-.12-.81-.12-1.15zm43.35 2.69c-6.56 3.68-13.12 7.34-19.66 11.05-.41.23-.76.36-1.12.38-.36-.01-.72-.11-1.13-.35-6.6-3.79-13.25-7.51-19.87-11.26-.34-.19-.65-.41-1.1-.7.3-.26.51-.5.78-.65 6.8-3.83 13.62-7.66 20.42-11.5.29-.16.55-.27.83-.3.25 0 .5.05.79.21 6.96 3.96 13.92 7.9 20.89 11.84.13.07.22.18.58.48-.6.33-1 .57-1.41.8zm1.7-1.57c-.33-.11-.6-.18-.82-.3-6.77-4-13.52-8.02-20.29-12.02-.55-.32-.85-.67-.86-1.37-.05-8.01-.12-16.01-.19-24.02 0-.13.03-.26.05-.39 1.19.44 7.78 4.17 13.55 7.59v.07c1.8 1.07 3.6 2.13 5.4 3.19 1.06.66 1.96 1.23 2.6 1.67.17.19.3.4.37.66.07 8.16.15 16.29.23 24.57-.02.11-.03.22-.04.35zm.31-26.6c-.43-.03-.86-.18-1.34-.46-6.38-3.68-12.82-7.28-19.23-10.91-.46-.26-.91-.52-1.52-.88.43-.32.71-.58 1.02-.76 6.64-3.74 13.29-7.45 19.91-11.22.44-.25.84-.38 1.23-.39.36.01.74.12 1.16.36 6.56 3.76 13.16 7.47 19.75 11.19.37.21.73.46 1.34.85-1.25.72-2.25 1.31-3.26 1.88-5.08 2.85-10.16 5.69-15.23 8.57-.78.44-1.57.88-2.35 1.33-.55.29-1.01.45-1.48.44zm.39 26.58c-.03-.57-.07-.99-.06-1.38.08-7.52.2-15.03.23-22.55 0-1.14.4-1.74 1.36-2.29 6.47-3.76 12.91-7.58 19.36-11.38.05-.03.11-.06.16-.09.31-.18.65-.33 1.11-.56v.03c.02.64.04 1.06.04 1.47-.09 7.52-.19 15.03-.24 22.55-.01 1.03-.3 1.67-1.23 2.21-.03.02-.06.04-.09.05-6.47 3.77-12.9 7.59-19.34 11.4-.17.1-.34.2-.53.3-.21.11-.43.21-.74.36-.01-.04-.02-.07-.03-.12zm43.52 1.31c-6.71 3.78-13.43 7.56-20.15 11.35-.13.07-.25.13-.38.18-.09.04-.18.07-.28.09-.01 0-.01 0-.02.01-.23.05-.45.06-.69.01-.16-.04-.33-.11-.5-.21-6.77-3.87-13.57-7.69-20.37-11.54-.25-.14-.47-.32-.94-.64.58-.34.95-.55 1.33-.77 6.63-3.72 13.28-7.44 19.9-11.18.26-.14.49-.24.73-.29.24-.03.48-.02.73.04.13.04.26.09.4.17 6.78 3.87 13.58 7.69 20.37 11.53.25.14.47.31.84.57-.37.26-.65.5-.97.68zm1.39-1.19c-.15-.08-.28-.15-.4-.21-7.11-4.22-14.02-8.31-21.03-12.46a1.57 1.57 0 0 1-.44-.67c-.08-8.25-.15-16.55-.23-25.07.56.29.95.47 1.32.7 6.46 3.83 12.91 7.68 19.4 11.46.93.54 1.23 1.14 1.23 2.19.02 7.46.11 14.93.18 22.39.01.46-.01.93-.03 1.67zm.48-26.59c-.36-.01-.72-.11-1.13-.35-6.6-3.79-13.25-7.51-19.87-11.26-.33-.19-.66-.41-1.11-.69.31-.26.51-.5.78-.65 6.8-3.84 13.62-7.66 20.42-11.5.18-.1.36-.18.53-.23.27-.05.53-.04.81.03.09.03.17.06.27.11 6.96 3.96 13.92 7.9 20.89 11.84.13.07.22.18.58.49-.57.32-.97.56-1.38.79-6.56 3.68-13.12 7.34-19.67 11.05-.21.12-.41.21-.61.28-.04.01-.07.01-.1.02-.14.03-.28.06-.41.07zm.26 26.48c-.04-.53-.08-.94-.08-1.34.09-7.61.19-15.21.25-22.82.01-.87.22-1.42 1.02-1.88 6.66-3.89 13.28-7.82 19.92-11.74.28-.17.6-.3.99-.49.03.52.08.93.08 1.33-.08 7.56-.19 15.12-.23 22.68-.01 1.06-.36 1.66-1.26 2.18-.52.31-1.04.61-1.57.92-6.01 3.51-12 7.05-18 10.58-.32.19-.68.36-1.11.57 0 .01 0 .01-.01.01zm43.56 1.36c-3.03 1.7-6.06 3.41-9.09 5.11-.53.3-1.05.59-1.58.89-3.16 1.77-6.31 3.54-9.46 5.32-.72.35-1.32.35-2.02.02-6.73-3.85-13.49-7.65-20.24-11.46-.25-.14-.47-.32-.93-.64.55-.31.88-.51 1.22-.7 6.68-3.75 13.36-7.49 20.03-11.26.33-.19.63-.31.94-.34.16 0 .32.03.48.07.14.04.29.1.45.19 6.78 3.87 13.58 7.69 20.37 11.54.24.14.46.32.83.57-.4.28-.69.51-1 .69zm1.37-1.36c-.15-.05-.29-.09-.43-.13-.21-.1-.41-.19-.58-.29-6.63-3.92-13.26-7.86-19.9-11.78-.62-.37-1.02-.73-1.02-1.57-.03-7.85-.12-15.71-.19-23.56 0-.26.04-.53.09-.98.02.01.04.02.05.03.54.3.93.51 1.3.73 6.42 3.8 12.83 7.63 19.28 11.4.91.53 1.27 1.1 1.28 2.17.02 7.52.11 15.03.17 22.54.01.42-.03.87-.05 1.44zm.64-26.61c-.28.04-.56.02-.85-.06-.21-.07-.44-.17-.67-.31-6.51-3.74-13.06-7.41-19.6-11.12-.37-.21-.72-.46-1.23-.78.37-.26.61-.47.88-.62 6.8-3.83 13.62-7.64 20.41-11.48.32-.18.61-.27.9-.28.27.02.54.1.84.27 3.87 2.2 7.76 4.39 11.64 6.59v-.04c3.01 1.71 6.02 3.41 9.04 5.12.16.09.29.23.64.51-.6.35-1.02.59-1.44.83-2.74 1.54-5.49 3.08-8.23 4.62v-.01c-3.78 2.12-7.55 4.25-11.31 6.4-.2.11-.38.19-.56.25-.1.04-.21.07-.31.09-.07.01-.11.02-.15.02zm.04 25.42c.08-7.65.18-15.31.25-22.97.01-.8.17-1.34.93-1.79 3.75-2.19 7.49-4.39 11.23-6.6v-.08c2.89-1.71 5.78-3.42 8.68-5.12.32-.19.66-.33 1.14-.56.03.56.09.98.08 1.4-.08 7.56-.2 15.12-.24 22.68 0 1.06-.36 1.66-1.27 2.19-2.85 1.66-5.69 3.33-8.54 5.01v-.01c-3.91 2.31-7.83 4.61-11.74 6.92-.1.06-.23.09-.46.17-.03-.5-.06-.87-.06-1.24zm43.63 2.52c-6.72 3.79-13.45 7.55-20.17 11.34-.65.37-1.18.5-1.88.1-3.05-1.74-6.11-3.47-9.17-5.2v-.04c-3.8-2.15-7.61-4.3-11.41-6.46-.17-.09-.32-.22-.62-.44.34-.26.59-.53.89-.7 3.71-2.09 7.43-4.18 11.14-6.27v-.08c2.88-1.62 5.76-3.24 8.62-4.88 1.01-.58 1.77-.6 2.8-.01 6.47 3.72 12.99 7.37 19.49 11.05.41.23.8.5 1.36.84-.44.33-.73.57-1.05.75zm-20.62-14.16c-.08-8.43-.15-16.85-.23-25.31 1.27.31 18.41 10.3 22.06 12.82.08 8.34.15 16.77.24 25.56-7.55-4.46-14.76-8.74-22.07-13.07zm21.4-13.91c-6.78-3.87-13.58-7.69-20.37-11.53-.24-.14-.46-.32-.83-.58.44-.3.77-.56 1.13-.76 6.68-3.75 13.36-7.5 20.03-11.26.69-.39 1.25-.52 2.01-.08 6.77 3.87 13.58 7.69 20.37 11.54.25.14.47.31.93.64-.55.32-.89.51-1.23.7-6.68 3.75-13.36 7.49-20.03 11.26-.69.39-1.25.5-2.01.07zm1.12 25.63c.08-7.71.18-15.42.25-23.13.01-.79.16-1.35.92-1.8 6.79-3.97 13.55-7.97 20.32-11.96.2-.12.43-.19.85-.36.03.58.06.97.06 1.35-.08 7.67-.18 15.32-.25 22.99-.01.79-.17 1.34-.93 1.79-6.75 3.94-13.47 7.92-20.2 11.89-.24.14-.51.25-.9.44-.04-.49-.12-.85-.12-1.21zm43.5 2.69c-6.56 3.68-13.12 7.34-19.66 11.05-.86.49-1.51.54-2.4.02-6.6-3.79-13.25-7.51-19.87-11.26-.34-.19-.65-.41-1.11-.7.3-.26.52-.5.78-.65 6.8-3.83 13.62-7.66 20.42-11.5.6-.34 1.11-.46 1.76-.09 6.96 3.96 13.92 7.9 20.89 11.84.13.07.22.18.58.48-.58.34-.98.58-1.39.81zm.73-1.88c-6.77-4-13.52-8.02-20.29-12.02-.55-.32-.85-.67-.86-1.37-.05-8.01-.12-16.01-.19-24.02 0-.14.04-.29.06-.43 1.04.15 18.23 10.14 22.05 12.82.08 8.43.16 16.83.23 25.38-.42-.14-.74-.2-1-.36zm-.22-26.75c-6.38-3.68-12.82-7.28-19.23-10.91-.46-.26-.91-.52-1.52-.88.43-.32.71-.58 1.02-.76 6.64-3.74 13.29-7.45 19.91-11.22.9-.51 1.6-.57 2.54-.04 6.56 3.76 13.16 7.47 19.75 11.19.37.21.73.46 1.34.85-1.25.72-2.25 1.31-3.26 1.88-5.87 3.3-11.77 6.57-17.61 9.92-1.09.62-1.88.58-2.94-.03zm1.68 25.66c.08-7.52.2-15.03.23-22.55 0-1.14.4-1.74 1.36-2.29 6.5-3.78 12.97-7.62 19.45-11.43.36-.22.75-.39 1.34-.68.02.71.05 1.14.04 1.58-.08 7.52-.19 15.03-.24 22.55-.01 1.04-.3 1.67-1.23 2.21-6.5 3.78-12.96 7.63-19.43 11.45-.4.24-.81.47-1.43.82-.05-.73-.09-1.2-.09-1.66zm43.73 2.69c-6.71 3.78-13.43 7.56-20.15 11.35-.69.39-1.25.51-2.01.08-6.77-3.87-13.57-7.69-20.37-11.54-.25-.14-.47-.32-.94-.64.58-.34.95-.55 1.33-.77 6.63-3.72 13.28-7.44 19.9-11.18.69-.39 1.24-.53 2.01-.09 6.78 3.87 13.58 7.69 20.37 11.53.25.14.47.31.84.57-.38.27-.66.51-.98.69zm1.39-1.08c-7.46-4.42-14.66-8.69-22.01-13.04-.08-8.41-.16-16.86-.23-25.55.64.33 1.07.53 1.47.77 6.46 3.83 12.91 7.68 19.4 11.46.93.54 1.23 1.14 1.23 2.19.02 7.46.11 14.93.18 22.39 0 .49-.03.97-.04 1.78zm-.8-27.05c-6.6-3.79-13.25-7.51-19.87-11.26-.33-.19-.66-.41-1.11-.69.31-.26.52-.5.78-.65 6.8-3.84 13.62-7.66 20.42-11.5.6-.34 1.11-.46 1.76-.09 6.96 3.96 13.92 7.9 20.89 11.84.13.07.22.18.58.49-.57.32-.97.56-1.38.79-6.56 3.68-13.12 7.34-19.67 11.05-.86.48-1.51.53-2.4.02zm1.31 25.49c.09-7.61.19-15.21.25-22.82.01-.87.22-1.42 1.02-1.88 6.66-3.89 13.28-7.82 19.92-11.74.32-.19.67-.33 1.14-.56.04.56.09.98.09 1.4-.08 7.56-.19 15.12-.23 22.68-.01 1.06-.36 1.66-1.27 2.19-6.54 3.8-13.04 7.66-19.56 11.5-.36.21-.75.39-1.26.65-.05-.58-.1-.99-.1-1.42zm43.78 2.7c-6.71 3.78-13.44 7.55-20.15 11.34-.69.39-1.25.51-2.01.08-6.77-3.87-13.57-7.69-20.37-11.54-.25-.14-.47-.32-.93-.64.55-.31.88-.51 1.22-.7 6.68-3.75 13.36-7.49 20.03-11.26.69-.39 1.25-.52 2.01-.08 6.78 3.87 13.58 7.69 20.37 11.54.24.14.46.32.83.57-.4.28-.68.51-1 .69zm-19.3-38.92c6.42 3.8 12.83 7.63 19.28 11.4.91.53 1.27 1.1 1.28 2.17.02 7.52.11 15.03.17 22.54.01.47-.03.94-.06 1.58-.48-.23-.83-.37-1.15-.55-6.63-3.92-13.26-7.86-19.9-11.78-.62-.37-1.02-.73-1.02-1.57-.03-7.85-.12-15.71-.19-23.56 0-.28.05-.56.1-1.06a39 39 0 0 1 1.49.83zm20.62-15.67c0 .63-.15 1.09-.75 1.44-6.91 4.05-13.8 8.13-20.69 12.2-.12.07-.27.1-.65.24-.02-.64-.06-1.11-.05-1.58.08-7.52.19-15.03.23-22.55.01-1.05.35-1.67 1.26-2.2 6.54-3.81 13.05-7.67 19.57-11.51.33-.2.67-.39 1.14-.66.09.43.21.73.2 1.04-.08 7.87-.18 15.73-.26 23.58zm-21-63.61c6.73 3.98 13.44 7.97 20.16 11.94.54.32.9.63.9 1.34.04 8.06.12 16.11.18 24.17 0 .09-.05.18-.13.49-3.75-2.03-7.32-4.27-10.94-6.4-3.66-2.15-7.3-4.33-10.97-6.5-.08-8.47-.15-16.85-.23-25.41.45.15.77.21 1.03.37zm21.16-15.69c-.01.81-.18 1.34-.94 1.79-6.78 3.96-13.54 7.96-20.31 11.94-.2.12-.43.21-.85.4-.02-.59-.06-.97-.06-1.35.09-7.65.18-15.31.25-22.97.01-.8.19-1.33.95-1.77 6.74-3.94 13.45-7.92 20.17-11.88.25-.15.52-.25.91-.45.05.45.13.82.13 1.18-.08 7.71-.19 15.41-.25 23.11zm.08-50.85.24 25.47c-.37-.12-.65-.14-.88-.28-6.81-4.02-13.61-8.06-20.42-12.09-.55-.33-.84-.69-.85-1.38-.05-8.01-.13-16.01-.19-24.02 0-.14.04-.28.1-.74 7.43 4.4 14.68 8.7 22 13.04zm.37-51.52c-.08 7.9-.18 15.8-.25 23.7-.01.65-.2 1.09-.79 1.43-6.94 4.07-13.88 8.16-20.81 12.24-.08.05-.18.06-.49.15-.03-.49-.07-.87-.06-1.24.08-7.7.18-15.41.25-23.12.01-.77.23-1.24.92-1.64 6.78-3.97 13.53-7.97 20.3-11.96.21-.12.43-.21.75-.37.07.29.19.55.18.81zm-43.47-2.33c6.59-3.7 13.2-7.39 19.77-11.12.83-.47 1.44-.47 2.27.01 6.6 3.78 13.24 7.5 19.86 11.25.37.21.7.47 1.17.78-.5.32-.84.57-1.21.77-6.59 3.71-13.19 7.4-19.76 11.14-.92.53-1.61.51-2.53-.02-6.56-3.76-13.15-7.46-19.73-11.18-.37-.21-.7-.47-1.23-.83.57-.33.98-.57 1.39-.8zm-1.69 1.52c.33.1.61.12.83.25 6.81 4.02 13.6 8.06 20.41 12.08.56.33.84.69.85 1.37.05 8 .13 16 .19 24 0 .14-.04.29-.1.66-.52-.27-.91-.44-1.27-.66-6.55-3.88-13.09-7.78-19.65-11.63-.75-.44-1.1-.9-1.1-1.82-.03-7.71-.12-15.42-.19-23.13-.02-.32.01-.66.03-1.12zm.65 26.8c6.78 3.87 13.57 7.7 20.37 11.53.24.14.47.32.84.57-.44.3-.77.57-1.12.76-6.67 3.76-13.36 7.5-20.03 11.27-.69.39-1.25.52-2.01.08-6.78-3.87-13.58-7.7-20.37-11.53-.25-.14-.47-.32-.94-.64.54-.31.88-.51 1.22-.7 6.68-3.75 13.36-7.49 20.03-11.26.68-.39 1.24-.52 2.01-.08zm-1.17-25.58c-.09 7.65-.19 15.31-.25 22.97-.01.8-.16 1.35-.92 1.79-6.78 3.95-13.54 7.95-20.31 11.94-.2.12-.43.21-.76.37-.06-.38-.16-.69-.16-1 .08-7.8.18-15.6.25-23.4.01-.69.17-1.18.81-1.56 6.9-4.04 13.79-8.11 20.68-12.18.12-.07.27-.11.6-.23.02.54.06.92.06 1.3zm-43.52-2.66c6.55-3.69 13.12-7.35 19.65-11.08.98-.56 1.7-.54 2.67.02 6.52 3.74 13.08 7.42 19.62 11.12.38.21.73.46 1.23.76-.33.27-.55.52-.81.66-6.81 3.83-13.62 7.65-20.43 11.48-.61.34-1.11.44-1.76.07-6.92-3.94-13.85-7.85-20.77-11.77-.16-.09-.31-.23-.69-.52.55-.31.92-.53 1.29-.74zm20.41 14.29c.08 8.48.16 16.89.23 25.65-7.5-4.45-14.73-8.73-22.06-13.07-.08-8.43-.16-16.85-.24-25.66 7.55 4.47 14.8 8.76 22.07 13.08zm-21.58 13.8c6.95 3.95 13.91 7.89 20.87 11.83.12.07.21.18.53.46-.55.32-.96.56-1.38.79-6.5 3.66-13.02 7.3-19.5 11-.95.54-1.67.61-2.67.03-6.55-3.77-13.14-7.46-19.72-11.19-.33-.19-.65-.41-1.09-.7.27-.23.44-.44.67-.56 6.88-3.88 13.78-7.74 20.66-11.62.57-.31 1.04-.37 1.63-.04zm-.94-25.5c-.08 7.71-.18 15.42-.25 23.13-.01.8-.19 1.34-.95 1.78-6.7 3.92-13.38 7.88-20.06 11.82-.28.17-.59.29-1.08.52-.03-.57-.07-.91-.07-1.25.09-7.71.19-15.42.25-23.13.01-.89.3-1.41 1.08-1.86 6.66-3.89 13.3-7.82 19.95-11.73.28-.17.59-.29 1.03-.51.03.5.1.87.1 1.23zm-43.94-2.45c6.72-3.78 13.45-7.55 20.16-11.35.81-.46 1.43-.51 2.28-.03 6.65 3.8 13.33 7.56 20 11.33.33.19.63.42 1.18.78-1.24.71-2.24 1.3-3.25 1.87-5.87 3.3-11.76 6.57-17.61 9.91-1 .57-1.75.65-2.79.05-6.43-3.71-12.9-7.33-19.36-10.99-.46-.26-.91-.53-1.5-.87.38-.3.61-.54.89-.7zm-1.22 1.15c.57.3 1 .49 1.4.73 6.47 3.83 12.92 7.69 19.42 11.48.91.53 1.27 1.1 1.27 2.18.02 7.52.11 15.04.18 22.56 0 .47-.04.95-.06 1.6-.57-.3-1-.5-1.4-.73-6.47-3.83-12.93-7.69-19.42-11.48-.91-.53-1.26-1.11-1.26-2.18-.02-7.52-.11-15.03-.18-22.56-.01-.47.03-.94.05-1.6zm.98 27.12c6.51 3.75 13.07 7.42 19.61 11.12.38.21.74.45 1.22.75-.25.24-.41.48-.63.6-6.89 3.88-13.79 7.74-20.68 11.63-.58.32-1.05.35-1.63.02-6.96-3.96-13.93-7.89-20.89-11.84-.13-.07-.23-.18-.52-.42.49-.32.83-.57 1.2-.77 6.55-3.69 13.12-7.35 19.65-11.08.97-.54 1.68-.58 2.67-.01zm-1.52-25.75c-.08 7.66-.18 15.33-.25 22.99-.01.79-.15 1.34-.92 1.79-6.75 3.94-13.47 7.92-20.19 11.89-.24.14-.51.25-1 .49-.02-.73-.04-1.2-.04-1.68.09-7.47.19-14.93.23-22.4.01-1.1.32-1.75 1.31-2.33 6.59-3.82 13.13-7.71 19.7-11.58.29-.17.6-.29 1.06-.51.04.52.11.93.1 1.34zm-43.87-2.36c3.58-2.02 7.15-4.02 10.73-6.03v-.08c3.19-1.79 6.38-3.58 9.57-5.38.69-.39 1.25-.51 2.01-.08 6.77 3.87 13.58 7.69 20.37 11.53.25.14.47.32.83.57-.4.28-.69.51-1.01.69-6.72 3.78-13.44 7.55-20.15 11.34-.69.39-1.25.51-2.02.07-3.2-1.83-6.4-3.64-9.61-5.45v-.03c-3.56-2.01-7.11-4.03-10.67-6.04-.25-.13-.46-.32-.82-.57.34-.23.54-.41.77-.54zm5.12 4.7c5.25 3.11 10.44 6.19 15.65 9.27.08 8.46.15 16.89.23 25.65-1.98-1.18-3.62-2.15-5.25-3.11-1.67-.99-3.35-1.99-5.02-2.98v-.03l-11.17-6.62c-.26-.23-.42-.5-.52-.82-.08-8.22-.15-16.46-.23-24.72.72.26 3.21 1.6 6.31 3.36zm-6.64 23.01c.42.03.85.17 1.35.45 3.57 2.06 7.16 4.1 10.76 6.13v-.05c2.97 1.67 5.93 3.35 8.9 5.02.33.19.64.42 1.2.78-1.15.66-2.07 1.2-2.99 1.72-3.89 2.19-7.78 4.37-11.67 6.56l-6.51 3.66c-.61.32-1.14.42-1.74.23-.09-.04-.17-.06-.26-.11-6.78-3.87-13.58-7.7-20.38-11.55-.25-.14-.47-.32-.89-.61.52-.33.83-.56 1.16-.75 6.51-3.66 13.03-7.3 19.52-11.01.55-.3 1.05-.47 1.55-.47zm-.28-25.76c-.08 7.9-.18 15.8-.25 23.7 0 .09-.02.17-.03.26-.14.56-.46.96-1.02 1.32-6.86 4.02-13.7 8.05-20.55 12.09-.07.04-.15.05-.35.11-.03-.47-.06-.84-.06-1.2.08-7.7.18-15.41.25-23.12.01-.77.23-1.24.92-1.64 6.78-3.97 13.53-7.97 20.3-11.96.18-.1.38-.19.62-.31.07.27.17.51.17.75zm-44.57-1.62c.49-.28.86-.5 1.23-.71 6.59-3.7 13.2-7.39 19.77-11.12.4-.22.74-.33 1.09-.33.33.02.66.13 1.04.34 6.6 3.78 13.24 7.5 19.86 11.25.37.21.7.47 1.17.78-.5.32-.84.57-1.21.77-6.59 3.71-13.19 7.4-19.76 11.14-.18.1-.35.17-.51.23-.11.04-.22.07-.33.09-.02 0-.04 0-.06.01-.28.04-.56.03-.85-.05-.21-.07-.42-.16-.64-.29-6.56-3.76-13.15-7.46-19.73-11.18-.36-.2-.7-.46-1.22-.82.06-.05.1-.08.15-.11zm-.45.85c.26.07.5.11.68.22 6.81 4.02 13.6 8.06 20.41 12.08.41.24.67.51.79.9 0 .01 0 .01.01.02.04.13.05.28.06.45.05 8 .13 16 .19 24 0 .13-.04.28-.09.59-.45-.23-.81-.4-1.14-.59-6.55-3.88-13.09-7.78-19.65-11.63-.75-.44-1.1-.9-1.1-1.82-.03-7.71-.12-15.42-.19-23.13-.02-.32.01-.65.03-1.09zm-.43 26.5c.08 0 .16.01.24.02.06.01.11.01.17.02.16.04.33.11.51.21 6.78 3.87 13.57 7.7 20.37 11.53.24.14.46.31.82.56-.08.07-.15.13-.23.19-.32.23-.59.43-.88.59-6.67 3.76-13.36 7.5-20.02 11.27-.27.15-.52.25-.77.3-.06.01-.13.03-.19.04-.06 0-.13-.01-.19-.02s-.13-.01-.2-.02a2.12 2.12 0 0 1-.51-.21c-6.78-3.87-13.58-7.7-20.37-11.53-.25-.14-.47-.32-.94-.64.54-.31.88-.51 1.22-.7 6.68-3.75 13.36-7.49 20.03-11.26.33-.19.63-.32.94-.35zm-.24-25.32c-.09 7.65-.19 15.31-.25 22.97 0 .53-.09.94-.36 1.29-.05.06-.08.12-.14.17-.06.06-.15.12-.23.17-.08.06-.15.13-.25.19-6.75 3.93-13.47 7.91-20.21 11.88-.16.08-.33.17-.53.27-.05.02-.1.05-.15.07-.06-.35-.15-.65-.15-.94.08-7.8.18-15.6.25-23.4.01-.69.17-1.18.81-1.56 6.9-4.04 13.79-8.11 20.68-12.18.1-.06.23-.1.45-.18.04.51.08.88.08 1.25zm-43.37-2.66c6.55-3.69 13.12-7.35 19.65-11.08.48-.27.9-.39 1.31-.39.39.03.77.16 1.21.41 6.52 3.74 13.08 7.42 19.62 11.12.38.21.73.46 1.23.76-.33.27-.55.52-.81.66-6.81 3.83-13.62 7.65-20.43 11.48-.09.05-.17.08-.26.12-.36.14-.7.17-1.06.08-.1-.04-.19-.06-.3-.12-6.92-3.94-13.85-7.85-20.77-11.77-.16-.09-.31-.23-.69-.52.56-.32.93-.54 1.3-.75zm-.53 1.96c7.09 4.2 13.93 8.26 20.8 12.33.08 8.45.16 16.84.23 25.56-7.45-4.41-14.64-8.67-21.92-12.98-.08-8.39-.16-16.78-.24-25.53.39.19.75.41 1.13.62zm-1.04 26.03c.08.03.17.06.25.11 6.95 3.95 13.91 7.89 20.87 11.83.11.06.2.17.44.38-.28.23-.5.43-.74.56-1.24.7-2.47 1.4-3.71 2.09-3.78 2.12-7.56 4.25-11.33 6.39-1.75.98-3.49 1.96-5.24 2.95-.35.18-.68.28-1.01.31-.4 0-.81-.12-1.28-.39-6.55-3.77-13.14-7.46-19.72-11.19-.33-.19-.65-.41-1.09-.7.27-.23.44-.44.67-.56 6.89-3.88 13.78-7.74 20.66-11.62.12-.07.24-.12.36-.17.29-.08.57-.07.87.01zm-.69-25.4c-.08 7.71-.18 15.42-.25 23.13 0 .31-.05.57-.13.81-.13.32-.34.59-.65.84-.04.03-.08.06-.13.1-.03.02-.07.05-.11.07-6.68 3.9-13.33 7.85-20 11.78-.25.15-.53.27-.94.46-.03-.53-.07-.86-.07-1.18.09-7.71.19-15.42.25-23.13.01-.89.3-1.41 1.08-1.86 6.66-3.89 13.3-7.82 19.95-11.73.25-.15.53-.27.89-.44.05.45.11.81.11 1.15zm-43.79-2.45c6.72-3.78 13.45-7.55 20.16-11.35.38-.22.72-.34 1.06-.36.34.01.68.11 1.07.33 6.65 3.8 13.33 7.56 20 11.33.3.17.59.38 1.04.69-.2.19-.35.35-.52.47-.47.27-.91.52-1.33.77-1.92 1.08-3.83 2.16-5.75 3.24-4.38 2.46-8.77 4.91-13.13 7.4-.48.28-.91.43-1.34.46-.41-.01-.83-.13-1.31-.41-6.43-3.71-12.9-7.33-19.36-10.99-.46-.26-.91-.53-1.5-.87.4-.31.63-.55.91-.71zm-1.22 1.23c.49.25.89.44 1.25.66 6.47 3.83 12.92 7.69 19.42 11.48.91.53 1.27 1.1 1.27 2.18.02 7.52.11 15.04.18 22.56 0 .45-.03.91-.06 1.52-.49-.25-.89-.45-1.26-.66-6.47-3.83-12.93-7.69-19.42-11.48-.91-.53-1.26-1.11-1.26-2.18-.02-7.52-.11-15.03-.18-22.56 0-.45.03-.91.06-1.52zm-.43 26.64c.4.01.8.13 1.27.4 6.51 3.75 13.07 7.42 19.61 11.12.38.21.74.45 1.22.75-.25.24-.41.48-.63.6-6.89 3.88-13.79 7.74-20.68 11.63-.27.15-.51.23-.75.24a1.53 1.53 0 0 1-.73-.22c-6.96-3.96-13.93-7.89-20.89-11.84-.12-.07-.23-.18-.52-.42.49-.32.83-.57 1.2-.77 6.55-3.69 13.12-7.35 19.65-11.08.45-.25.85-.39 1.25-.41zm-.25-25.35c-.08 7.66-.18 15.33-.25 22.99-.01.79-.15 1.34-.92 1.79-6.75 3.94-13.47 7.92-20.19 11.89-.22.13-.46.23-.86.42-.02-.68-.04-1.15-.04-1.61.09-7.47.19-14.93.23-22.4.01-1.1.32-1.75 1.31-2.33 6.59-3.82 13.13-7.71 19.7-11.58.25-.15.54-.27.92-.45.04.49.1.89.1 1.28zm-43.9-2.34.44-.25c.97-.55 1.94-1.09 2.91-1.64 2.47-1.39 4.94-2.77 7.4-4.16 3.24-1.82 6.48-3.63 9.71-5.46.33-.19.63-.31.94-.34.29 0 .59.07.93.26 6.77 3.87 13.58 7.69 20.37 11.53.25.14.47.32.83.57-.4.28-.69.51-1.01.69-6.72 3.78-13.44 7.55-20.15 11.34-.33.19-.63.3-.94.34-.29 0-.59-.07-.93-.26-6.78-3.87-13.58-7.69-20.37-11.53-.23-.13-.45-.3-.85-.58.31-.22.51-.39.72-.51zm-1.06 1.3c.47.16 1.85.87 3.72 1.9 6.1 3.62 12.1 7.18 18.13 10.75.08 8.44.15 16.83.23 25.56-1.92-1.14-3.51-2.08-5.1-3.03-5.21-3.09-10.41-6.19-15.63-9.24-.86-.49-1.22-1.04-1.22-2.06-.03-7.52-.11-15.04-.18-22.55 0-.38.03-.78.05-1.33zm.2 26.47c.16.06.32.12.49.22 6.61 3.78 13.25 7.51 19.87 11.26.33.19.64.42 1.2.78-1.15.66-2.07 1.2-2.99 1.72-6 3.37-12.01 6.73-17.99 10.13-.49.28-.92.42-1.36.41-.32-.03-.65-.15-1.02-.36-6.56-3.76-13.16-7.46-19.74-11.18-.37-.21-.73-.46-1.23-.77.39-.3.66-.55.98-.73 6.62-3.73 13.26-7.44 19.87-11.19.04-.02.07-.04.11-.05.08-.05.16-.07.24-.11.53-.23 1.03-.28 1.57-.13zm-.95-26.62c.04.54.08.92.08 1.3-.08 7.56-.2 15.12-.24 22.67-.01 1.06-.35 1.66-1.26 2.19-6.45 3.75-12.87 7.57-19.3 11.36-.37.22-.74.43-1.21.7-.05.01-.12.03-.19.05-.03-.63-.06-1.07-.06-1.51.08-7.51.2-15.02.23-22.53.01-1.06.36-1.65 1.27-2.18 6.45-3.76 12.86-7.57 19.29-11.37.24-.14.49-.28.76-.44.17-.09.36-.18.61-.3.01.03.01.05.02.06zm-43.52-1.42c2.68-1.51 5.37-3.02 8.05-4.53 1.29-.73 2.59-1.46 3.88-2.18 2.74-1.54 5.48-3.07 8.21-4.62.11-.06.21-.1.31-.14.4-.15.77-.16 1.16-.05.13.05.26.1.4.18 6.69 3.82 13.41 7.6 20.11 11.39.33.18.62.42 1.12.76-.57.33-.98.57-1.38.8-6.55 3.68-13.11 7.35-19.64 11.06-.45.25-.84.37-1.23.37-.37-.02-.73-.14-1.15-.37-6.56-3.76-13.15-7.46-19.73-11.18-.37-.2-.71-.46-1.18-.78.45-.3.75-.53 1.07-.71zm-1.39 1.41c.12.03.23.06.33.08.24.11.47.22.67.34 6.63 3.92 13.26 7.86 19.91 11.77.72.42 1 .9 1 1.73.04 7.71.13 15.42.19 23.13 0 .35-.05.71-.09 1.19-.39-.18-.71-.32-.99-.49-6.64-3.93-13.26-7.87-19.91-11.78-.72-.42-1-.9-1-1.73-.04-7.71-.12-15.42-.19-23.13.01-.31.05-.66.08-1.11zm-.43 26.51c.31 0 .63.09 1 .3 6.69 3.82 13.41 7.6 20.11 11.39.29.16.56.36.97.63-.33.26-.55.48-.82.63-6.8 3.83-13.61 7.64-20.41 11.48-.31.18-.59.27-.88.3a1.8 1.8 0 0 1-.86-.26c-6.82-3.89-13.66-7.74-20.5-11.6-.2-.12-.39-.27-.83-.59.57-.33.94-.54 1.31-.75 6.64-3.73 13.28-7.44 19.9-11.19.18-.1.35-.18.52-.24.05-.02.09-.02.14-.03.12-.03.23-.06.35-.07zm-.27-25.34c-.08 7.66-.19 15.31-.24 22.97-.01.89-.29 1.41-1.06 1.87-6.7 3.91-13.37 7.86-20.06 11.8-.22.13-.46.24-.76.38-.07-.35-.15-.65-.15-.94.08-7.8.18-15.6.25-23.41.01-.68.17-1.17.81-1.55 6.9-4.05 13.79-8.11 20.68-12.18.1-.05.23-.09.45-.17.04.5.08.87.08 1.23zM86 18.06c6.59-3.71 13.2-7.4 19.78-11.15.18-.11.35-.18.52-.24.12-.04.24-.08.35-.1h.02c.3-.05.6-.03.9.06.19.06.38.14.59.26 6.56 3.76 13.16 7.47 19.75 11.19.37.21.72.46 1.22.78-.41.3-.68.55-1 .73-6.72 3.78-13.46 7.54-20.17 11.33-.35.2-.66.3-.97.31a1.84 1.84 0 0 1-.9-.28c-6.79-3.87-13.59-7.7-20.38-11.54-.24-.14-.46-.33-.92-.65.55-.33.88-.52 1.21-.7zm9.38 7.72c3.65 2.15 7.3 4.32 10.99 6.51.07 8.44.15 16.83.23 25.55-7.49-4.44-14.65-8.68-21.91-12.99-.08-8.39-.16-16.79-.24-25.49 3.83 2.11 7.35 4.32 10.93 6.42zM84.01 45.94c.32-.01.65.08 1.03.29 6.69 3.82 13.41 7.6 20.11 11.4.27.15.54.34.91.58.02.02.04.03.06.05-.33.26-.55.48-.82.62-6.8 3.84-13.61 7.65-20.4 11.5-.15.08-.28.14-.42.19-.34.08-.68.06-1.04-.04-.09-.04-.18-.07-.28-.12-2.77-1.58-5.54-3.14-8.31-4.71v.04c-3.94-2.23-7.89-4.46-11.84-6.7-.33-.19-.65-.41-1.09-.7.27-.23.44-.44.67-.56 6.82-3.84 13.64-7.66 20.46-11.51.35-.19.65-.3.96-.33zm-.24-26.52c.03.59.07 1.05.07 1.49-.08 7.52-.19 15.03-.24 22.55-.01 1.04-.3 1.67-1.23 2.21-2.56 1.49-5.11 3-7.66 4.5v.07c-4.01 2.37-8.02 4.74-12.03 7.1-.28.17-.59.29-1.08.52-.03-.57-.07-.91-.07-1.25.09-7.71.19-15.42.25-23.13.01-.89.3-1.41 1.08-1.86 4.01-2.34 8.01-4.7 12.01-7.05 2.58-1.52 5.17-3.04 7.76-4.56.31-.19.67-.36 1.14-.59zM40 18.16c6.72-3.78 13.45-7.55 20.16-11.35.81-.46 1.43-.51 2.28-.03 4.08 2.33 8.17 4.65 12.27 6.96v.03c2.49 1.41 4.98 2.81 7.46 4.22.38.21.74.45 1.22.75-.27.25-.44.47-.66.59-2.68 1.51-5.35 3.01-8.03 4.52v.08c-3.99 2.23-7.98 4.47-11.95 6.74-1 .57-1.75.65-2.79.05-6.43-3.71-12.9-7.33-19.36-10.99-.46-.26-.91-.53-1.5-.87.4-.3.62-.54.9-.7zm-1.21 1.15c.57.3 1 .49 1.4.73 6.47 3.83 12.92 7.69 19.42 11.48.91.53 1.27 1.1 1.27 2.18.02 7.52.11 15.04.18 22.56 0 .47-.04.95-.06 1.6-.57-.3-1-.5-1.4-.73-6.47-3.83-12.93-7.69-19.42-11.48-.91-.53-1.26-1.11-1.26-2.18-.02-7.52-.11-15.03-.18-22.56-.02-.47.02-.94.05-1.6zm.97 27.12c6.51 3.75 13.07 7.42 19.61 11.12.38.21.74.45 1.22.75-.25.24-.41.48-.63.6-6.89 3.88-13.79 7.74-20.68 11.63-.58.32-1.05.35-1.63.02-6.96-3.96-13.93-7.89-20.89-11.84-.12-.07-.23-.18-.52-.42.49-.32.83-.57 1.2-.77 6.55-3.69 13.12-7.35 19.65-11.08.97-.54 1.68-.58 2.67-.01zm-1.51-25.75c-.08 7.66-.18 15.32-.25 22.98 0 .79-.15 1.34-.92 1.79-6.75 3.94-13.47 7.92-20.19 11.89-.24.14-.51.25-1 .49-.02-.73-.04-1.2-.04-1.68.09-7.47.19-14.93.23-22.4.01-1.1.32-1.75 1.31-2.33 6.59-3.82 13.13-7.71 19.7-11.58.29-.17.6-.29 1.06-.51.03.53.1.94.1 1.35zm-43.61-2.59C1.32 14.34 8 10.6 14.67 6.83c.69-.39 1.25-.51 2.01-.08 6.77 3.87 13.58 7.69 20.37 11.53.25.14.47.32.83.57-.4.28-.69.51-1.01.69-6.72 3.78-13.44 7.55-20.15 11.34-.69.39-1.25.51-2.01.07-6.77-3.86-13.57-7.68-20.36-11.52-.25-.14-.47-.32-.93-.64.55-.32.88-.52 1.22-.7zm-1.47 1.18C.62 23.69 7.85 27.98 15.15 32.3c.08 8.46.15 16.89.23 25.65-1.98-1.18-3.62-2.15-5.25-3.11C4.92 51.75-.28 48.65-5.5 45.6c-.86-.49-1.22-1.04-1.22-2.06-.03-7.52-.11-15.04-.18-22.55-.01-.49.03-.96.07-1.72z" style="fill-rule:evenodd;clip-rule:evenodd;fill:red"/></g></g></svg>