<?xml version="1.0" encoding="UTF-8"?>
<svg id="Layer_1" data-name="Layer 1" xmlns="http://www.w3.org/2000/svg" viewBox="0 0 283.46 113.39">
  <defs>
    <style>
      .cls-1 {
        fill: #e21d3d;
        stroke-width: 0px;
      }
    </style>
  </defs>
  <g>
    <path class="cls-1" d="M147.01,51.6l-9.03,9.3c-.7.72-1.69,1.14-2.7,1.14h-18.86c-.69,0-1.25-.56-1.25-1.25v-9.45h21.77c1.75,0,3.16-1.42,3.16-3.16v-3.71h-23.92l-6.21,6.5c-1.07,1.12-1.67,2.62-1.67,4.17v5.66c0,4.49,3.64,8.12,8.12,8.12h18.86c2.86,0,5.64-1.17,7.63-3.22l13.69-14.09h-9.59Z"/>
    <path class="cls-1" d="M100.76,44.47h-13.64l-6.21,6.49c-1.07,1.12-1.67,2.62-1.67,4.17v5.66c0,4.49,3.64,8.12,8.12,8.12h6.19l-7.14,6.94h7.99c1.2,0,2.36-.47,3.22-1.31l2.82-2.74c2.05-1.99,3.22-4.77,3.22-7.63v-16.8c0-1.61-1.3-2.91-2.91-2.91ZM96.8,61.63v.41h-9.43c-.69,0-1.25-.56-1.25-1.25v-9.45h10.68v10.28Z"/>
    <path class="cls-1" d="M60.32,44.47h-14.37s-9.72,0-9.72,0l-6.21,6.49c-.99,1.04-1.58,2.39-1.66,3.81,0,.12-.01.24-.01.36v11.1c0,1.48,1.2,2.69,2.69,2.69h4.19v-17.57h10.69l-6.87,5.35v4.09c0,4.48,3.64,8.12,8.12,8.12h5.66c1.55,0,3.05-.6,4.17-1.67l6.49-6.21v-13.39c0-1.75-1.42-3.16-3.16-3.16ZM56.61,62.03h-9.45c-.69,0-1.25-.56-1.25-1.25v-9.43h2.01s8.69,0,8.69,0v10.68Z"/>
    <path class="cls-1" d="M68.03,41.31v27.59h3.71c1.75,0,3.16-1.42,3.16-3.16v-27.59h-3.71c-1.75,0-3.16,1.42-3.16,3.16Z"/>
    <rect class="cls-1" x="183.07" y="61.75" width="7.11" height="7.11" rx="1.11" ry="1.11"/>
    <path class="cls-1" d="M190.18,44.47h-25.04v4.08c0,1.54,1.25,2.79,2.79,2.79h9.8l-7.9,8.16c-1.55,1.6-3.71,2.51-5.93,2.51h-7.1l-4.07-3.78-4.66,5.01,4.43,4.11c1.04.97,2.4,1.5,3.82,1.5h7.58c4.06,0,8.02-1.68,10.85-4.6l12.51-12.93h2.92v-6.87Z"/>
  </g>
  <path class="cls-1" d="M248.84,36.43h-27.97c-3.46,0-6.27,2.81-6.27,6.27v20.11h6.9c2.39,0,4.72-.99,6.38-2.7l8.52-8.8h-10.56c-1.66,0-3.01-1.35-3.01-3.01v-4.39h26.98v7.4h-3.14l-13.48,13.93c-3.05,3.14-7.31,4.95-11.68,4.95h-6.9v.48c0,3.46,2.81,6.27,6.27,6.27h27.97c3.47,0,6.27-2.81,6.27-6.27v-27.97c0-3.46-2.81-6.27-6.27-6.27ZM249.82,69c0,.66-.54,1.2-1.2,1.2h-5.26c-.66,0-1.2-.54-1.2-1.2v-5.26c0-.66.54-1.2,1.2-1.2h5.26c.66,0,1.2.54,1.2,1.2v5.26Z"/>
</svg>